<svg width="27" height="24" viewBox="0 0 27 24" fill="none" xmlns="http://www.w3.org/2000/svg">
<path d="M8.4928 10L13.9361 5M13.9361 5L19.3795 10M13.9361 5L13.9361 11.5" stroke="#D8EE10" stroke-width="2"/>
<path d="M20.6455 13C21.7501 13 22.6455 13.8954 22.6455 15V19C22.6455 20.1046 21.7501 21 20.6455 21H7.22656C6.12208 20.9999 5.22656 20.1045 5.22656 19V15C5.22656 13.8955 6.12208 13.0001 7.22656 13H12.9365V16.5L12.9414 16.6025C12.9928 17.1066 13.4189 17.5 13.9365 17.5C14.454 17.4998 14.8803 17.1065 14.9316 16.6025L14.9365 16.5V13H20.6455Z" fill="#D8EE10"/>
</svg>
