<svg width="35" height="19" viewBox="0 0 35 19" fill="none" xmlns="http://www.w3.org/2000/svg">
<path d="M34.7064 17.8767C34.7064 13.1355 32.8781 8.5885 29.6238 5.23597C26.3694 1.88343 21.9556 3.6217e-07 17.3532 4.21967e-09C12.7508 -3.53731e-07 8.33699 1.88343 5.08264 5.23597C1.82828 8.5885 7.18477e-07 13.1355 2.35405e-08 17.8767H4.3383C4.3383 14.3208 5.70951 10.9106 8.15028 8.39615C10.591 5.88175 13.9014 4.46918 17.3532 4.46918C20.805 4.46918 24.1154 5.88175 26.5561 8.39615C28.9969 10.9106 30.3681 14.3208 30.3681 17.8767H34.7064Z" fill="#FF0000"/>
<path d="M8.94873 2.23652C6.22962 3.78716 3.96466 6.06164 2.39051 8.82229C0.816356 11.5829 -0.00920761 14.7284 7.74654e-05 17.9301L4.33836 17.9168C4.33139 15.5155 4.95057 13.1564 6.13118 11.0859C7.31179 9.01541 9.01051 7.30955 11.0498 6.14657L8.94873 2.23652Z" fill="#FECDD3"/>
<path d="M26.0298 2.39502C23.3984 0.829927 20.4141 0.00405388 17.3756 1.48862e-05C14.3371 -0.00402411 11.3508 0.813912 8.71541 2.37201L10.8749 6.24819C12.8514 5.07961 15.0911 4.46616 17.37 4.46919C19.6489 4.47222 21.8871 5.09162 23.8607 6.26545L26.0298 2.39502Z" fill="#FB7185"/>
<path d="M30.2072 13.6506L16.1844 18.0578L15.8031 16.7515L30.2072 13.6506Z" fill="white"/>
<path d="M16.514 18.0318C15.9953 18.1688 15.4821 17.9621 15.3676 17.5701C15.2532 17.178 15.581 16.7491 16.0997 16.6121C16.6184 16.4751 17.1316 16.6819 17.2461 17.0739C17.3605 17.466 17.0327 17.8948 16.514 18.0318Z" fill="white"/>
</svg>
