<svg width="35" height="19" viewBox="0 0 35 19" fill="none" xmlns="http://www.w3.org/2000/svg">
<path d="M34.8147 17.8767C34.8147 13.1355 32.9864 8.5885 29.732 5.23597C26.4776 1.88343 22.0637 3.6217e-07 17.4613 4.21967e-09C12.8589 -3.53731e-07 8.445 1.88343 5.19061 5.23597C1.93621 8.5885 0.107911 13.1355 0.10791 17.8767H4.44626C4.44626 14.3208 5.81749 10.9106 8.25828 8.39615C10.6991 5.88175 14.0095 4.46918 17.4613 4.46918C20.9131 4.46918 24.2235 5.88175 26.6643 8.39616C29.1051 10.9106 30.4764 14.3208 30.4764 17.8767H34.8147Z" fill="#FF0000"/>
<path d="M9.05674 2.23652C6.3376 3.78716 4.07261 6.06164 2.49844 8.82229C0.924275 11.5829 0.0987024 14.7284 0.107988 17.9301L4.44632 17.9168C4.43935 15.5155 5.05853 13.1564 6.23916 11.0859C7.41979 9.01541 9.11853 7.30955 11.1579 6.14657L9.05674 2.23652Z" fill="#FECDD3"/>
<path d="M26.138 2.39503C23.5065 0.829927 20.5223 0.00405388 17.4837 1.48862e-05C14.4451 -0.00402411 11.4588 0.813912 8.82343 2.37201L10.9829 6.24819C12.9594 5.07961 15.1992 4.46616 17.4781 4.46919C19.757 4.47222 21.9952 5.09162 23.9688 6.26545L26.138 2.39503Z" fill="#FB7185"/>
<path d="M5.02998 9.68745L17.9976 16.6087L17.3322 17.7959L5.02998 9.68745Z" fill="white"/>
<path d="M17.7481 16.3917C18.2092 16.6659 18.4212 17.1771 18.2215 17.5333C18.0218 17.8896 17.4862 17.9561 17.0251 17.6818C16.564 17.4076 16.352 16.8965 16.5517 16.5402C16.7514 16.1839 17.287 16.1174 17.7481 16.3917Z" fill="white"/>
</svg>
