<svg width="33" height="33" viewBox="0 0 33 33" fill="none" xmlns="http://www.w3.org/2000/svg">
<g clip-path="url(#clip0_1140_28915)">
<path d="M26.6768 5.66113H6.30151V24.1798H26.6768V5.66113Z" fill="white"/>
<path fill-rule="evenodd" clip-rule="evenodd" d="M32.989 16.5C32.989 25.6007 25.6067 32.9781 16.5 32.9781C7.39337 32.9781 0.0109863 25.6007 0.0109863 16.5C0.0109863 7.39945 7.39337 0.0219727 16.5 0.0219727C25.6067 0.0219727 32.989 7.39945 32.989 16.5ZM11.8275 23.0575H8.62743C7.95501 23.0575 7.62285 23.0575 7.42033 22.928C7.20158 22.7863 7.06791 22.5515 7.05171 22.2924C7.03955 22.0536 7.20564 21.7621 7.5378 21.1792L15.4391 7.26124C15.7753 6.67022 15.9455 6.37471 16.1601 6.26542C16.391 6.14804 16.6665 6.14804 16.8974 6.26542C17.1121 6.37471 17.2822 6.67022 17.6184 7.26124L19.2428 10.0948L19.251 10.1093C19.6142 10.7434 19.7983 11.0649 19.8787 11.4023C19.9678 11.7707 19.9678 12.1593 19.8787 12.5277C19.7977 12.8677 19.6154 13.1916 19.2468 13.8352L15.0964 21.167L15.0857 21.1858C14.7202 21.8251 14.5349 22.1491 14.2782 22.3935C13.9987 22.6608 13.6625 22.8549 13.2938 22.9644C12.9576 23.0575 12.5809 23.0575 11.8275 23.0575ZM19.9087 23.0575H24.494C25.1705 23.0575 25.5108 23.0575 25.7134 22.9241C25.9321 22.7823 26.0698 22.5434 26.0821 22.2845C26.0937 22.0534 25.9312 21.7732 25.6129 21.2242C25.6019 21.2055 25.5909 21.1865 25.5797 21.1671L23.2829 17.2406L23.2568 17.1963C22.934 16.6509 22.7711 16.3755 22.5619 16.269C22.3311 16.1516 22.0595 16.1516 21.8287 16.269C21.6181 16.3783 21.448 16.6657 21.1118 17.2446L18.8231 21.1712L18.8153 21.1847C18.4802 21.7626 18.3128 22.0514 18.3249 22.2884C18.3411 22.5475 18.4747 22.7863 18.6935 22.928C18.892 23.0575 19.2322 23.0575 19.9087 23.0575Z" fill="#E84142"/>
</g>
<defs>
<clipPath id="clip0_1140_28915">
<rect width="33" height="33" fill="white"/>
</clipPath>
</defs>
</svg>
