<svg width="33" height="33" viewBox="0 0 33 33" fill="none" xmlns="http://www.w3.org/2000/svg">
<mask id="mask0_1104_15861" style="mask-type:luminance" maskUnits="userSpaceOnUse" x="0" y="0" width="33" height="33">
<path d="M16.5 33C7.38672 33 0 25.6133 0 16.5C0 7.38672 7.38672 0 16.5 0C25.6133 0 33 7.38672 33 16.5C33 25.6133 25.6133 33 16.5 33Z" fill="white"/>
</mask>
<g mask="url(#mask0_1104_15861)">
<path fill-rule="evenodd" clip-rule="evenodd" d="M16.5001 16.4999L-6.83752 16.356L-6.8164 15.498L16.5001 16.4999Z" fill="#FEFEFF"/>
<path fill-rule="evenodd" clip-rule="evenodd" d="M16.5001 16.5001L-6.82031 15.6407L-6.78467 14.9253L16.5001 16.5001Z" fill="#FDFEFF"/>
<path fill-rule="evenodd" clip-rule="evenodd" d="M16.5002 16.499L-6.79248 15.0681L-6.73968 14.354L16.5002 16.499Z" fill="#FCFDFF"/>
<path fill-rule="evenodd" clip-rule="evenodd" d="M16.5001 16.4994L-6.75037 14.497L-6.68041 13.7842L16.5001 16.4994Z" fill="#FBFCFF"/>
<path fill-rule="evenodd" clip-rule="evenodd" d="M16.5001 16.5001L-6.6936 13.9274L-6.60648 13.2173L16.5001 16.5001Z" fill="#FAFCFF"/>
<path fill-rule="evenodd" clip-rule="evenodd" d="M16.5001 16.4995L-6.62366 13.3592L-6.51938 12.6504L16.5001 16.4995Z" fill="#F9FBFF"/>
<path fill-rule="evenodd" clip-rule="evenodd" d="M16.5002 16.4992L-6.53906 12.7913L-6.41762 12.0864L16.5002 16.4992Z" fill="#F8FAFF"/>
<path fill-rule="evenodd" clip-rule="evenodd" d="M16.4999 16.4992L-6.44165 12.2276L-6.30305 11.5254L16.4999 16.4992Z" fill="#F7FAFF"/>
<path fill-rule="evenodd" clip-rule="evenodd" d="M16.5 16.4994L-6.33069 11.6669L-6.17361 10.9673L16.5 16.4994Z" fill="#F6F9FF"/>
<path fill-rule="evenodd" clip-rule="evenodd" d="M16.5002 16.5001L-6.20508 11.1079L-6.03084 10.4136L16.5002 16.5001Z" fill="#F5F8FF"/>
<path fill-rule="evenodd" clip-rule="evenodd" d="M16.5002 16.4996L-6.06519 10.5517L-5.87511 9.86133L16.5002 16.4996Z" fill="#F4F8FF"/>
<path fill-rule="evenodd" clip-rule="evenodd" d="M16.5 16.4997L-5.91357 10L-5.70501 9.31494L16.5 16.4997Z" fill="#F3F7FF"/>
<path fill-rule="evenodd" clip-rule="evenodd" d="M16.5 16.5002L-5.74731 9.45275L-5.52159 8.77295L16.5 16.5002Z" fill="#F2F6FF"/>
<path fill-rule="evenodd" clip-rule="evenodd" d="M16.5003 16.4997L-5.5675 8.90841L-5.32595 8.23389L16.5003 16.4997Z" fill="#F1F6FF"/>
<path fill-rule="evenodd" clip-rule="evenodd" d="M16.4999 16.4998L-5.37378 8.3686L-5.11638 7.70068L16.4999 16.4998Z" fill="#F0F5FF"/>
<path fill-rule="evenodd" clip-rule="evenodd" d="M16.5002 16.499L-5.1676 7.83319L-4.89436 7.17188L16.5002 16.499Z" fill="#EFF4FF"/>
<path fill-rule="evenodd" clip-rule="evenodd" d="M16.5001 16.5004L-4.94861 7.30526L-4.65821 6.65186L16.5001 16.5004Z" fill="#EEF3FF"/>
<path fill-rule="evenodd" clip-rule="evenodd" d="M16.4999 16.4994L-4.71643 6.78157L-4.41019 6.13477L16.4999 16.4994Z" fill="#EDF3FF"/>
<path fill-rule="evenodd" clip-rule="evenodd" d="M16.5 16.499L-4.47217 6.26374L-4.15009 5.62354L16.5 16.499Z" fill="#ECF2FF"/>
<path fill-rule="evenodd" clip-rule="evenodd" d="M16.5 16.4995L-4.21472 5.75205L-3.8768 5.12109L16.5 16.4995Z" fill="#EBF1FF"/>
<path fill-rule="evenodd" clip-rule="evenodd" d="M16.5001 16.4991L-3.94409 5.24741L-3.59165 4.62305L16.5001 16.4991Z" fill="#EAF1FF"/>
<path fill-rule="evenodd" clip-rule="evenodd" d="M16.4999 16.4997L-3.66174 4.74905L-3.29346 4.13525L16.4999 16.4997Z" fill="#E9F0FF"/>
<path fill-rule="evenodd" clip-rule="evenodd" d="M16.5 16.4994L-3.36731 4.25774L-2.98451 3.65186L16.5 16.4994Z" fill="#E8EFFF"/>
<path fill-rule="evenodd" clip-rule="evenodd" d="M16.4999 16.5002L-3.06116 3.77403L-2.66252 3.17871L16.4999 16.5002Z" fill="#E7EFFF"/>
<path fill-rule="evenodd" clip-rule="evenodd" d="M16.5 16.5003L-2.74292 3.29765L-2.33108 2.71289L16.5 16.5003Z" fill="#E6EEFF"/>
<path fill-rule="evenodd" clip-rule="evenodd" d="M16.5 16.4998L-2.41296 2.82991L-1.9866 2.25439L16.5 16.4998Z" fill="#E5EDFF"/>
<path fill-rule="evenodd" clip-rule="evenodd" d="M16.5 16.5002L-2.07239 2.36965L-1.63151 1.80469L16.5 16.5002Z" fill="#E4EDFF"/>
<path fill-rule="evenodd" clip-rule="evenodd" d="M16.5002 16.5004L-1.71973 1.91831L-1.26565 1.36523L16.5002 16.5004Z" fill="#E3ECFF"/>
<path fill-rule="evenodd" clip-rule="evenodd" d="M16.4999 16.4999L-1.35571 1.47563L-0.888433 0.933105L16.4999 16.4999Z" fill="#E2EBFF"/>
<path fill-rule="evenodd" clip-rule="evenodd" d="M16.4999 16.5004L-0.982178 1.04187L-0.501698 0.51123L16.4999 16.5004Z" fill="#E1EBFF"/>
<path fill-rule="evenodd" clip-rule="evenodd" d="M16.4999 16.4991L-0.598022 0.616905L-0.104343 0.0981445L16.4999 16.4991Z" fill="#E0EAFF"/>
<path fill-rule="evenodd" clip-rule="evenodd" d="M16.5 16.5004L-0.203247 0.203657L0.303633 -0.303223L16.5 16.5004Z" fill="#DFE9FF"/>
<path fill-rule="evenodd" clip-rule="evenodd" d="M16.5 16.4998L0.203247 -0.203441L0.720687 -0.695801L16.5 16.4998Z" fill="#DEE9FF"/>
<path fill-rule="evenodd" clip-rule="evenodd" d="M16.5 16.5003L0.617798 -0.597645L1.14844 -1.07812L16.5 16.5003Z" fill="#DDE8FF"/>
<path fill-rule="evenodd" clip-rule="evenodd" d="M16.5 16.4992L1.0415 -0.982915L1.58402 -1.4502L16.5 16.4992Z" fill="#DCE7FF"/>
<path fill-rule="evenodd" clip-rule="evenodd" d="M16.5001 16.4992L1.47583 -1.35647L2.02891 -1.81055L16.5001 16.4992Z" fill="#DBE7FF"/>
<path fill-rule="evenodd" clip-rule="evenodd" d="M16.5003 16.5003L1.91821 -1.71962L2.48317 -2.15918L16.5003 16.5003Z" fill="#DAE6FF"/>
<path fill-rule="evenodd" clip-rule="evenodd" d="M16.5 16.4997L2.36938 -2.07266L2.9449 -2.49902L16.5 16.4997Z" fill="#D9E5FF"/>
<path fill-rule="evenodd" clip-rule="evenodd" d="M16.5 16.4991L2.83008 -2.41384L3.41484 -2.82568L16.5 16.4991Z" fill="#D8E5FF"/>
<path fill-rule="evenodd" clip-rule="evenodd" d="M16.5 16.4997L3.29736 -2.74331L3.89268 -3.14062L16.5 16.4997Z" fill="#D7E4FF"/>
<path fill-rule="evenodd" clip-rule="evenodd" d="M16.4999 16.5L3.7738 -3.06105L4.37968 -3.44385L16.4999 16.5Z" fill="#D6E3FF"/>
<path fill-rule="evenodd" clip-rule="evenodd" d="M16.5 16.5002L4.2583 -3.36707L4.8721 -3.73535L16.5 16.5002Z" fill="#D5E3FF"/>
<path fill-rule="evenodd" clip-rule="evenodd" d="M16.5 16.499L4.74939 -3.6627L5.37243 -4.01514L16.5 16.499Z" fill="#D4E2FF"/>
<path fill-rule="evenodd" clip-rule="evenodd" d="M16.5002 16.5003L5.24854 -3.94382L5.87949 -4.28174L16.5002 16.5003Z" fill="#D3E1FF"/>
<path fill-rule="evenodd" clip-rule="evenodd" d="M16.5002 16.5004L5.75281 -4.2144L6.39301 -4.53516L16.5002 16.5004Z" fill="#D2E0FF"/>
<path fill-rule="evenodd" clip-rule="evenodd" d="M16.5001 16.5002L6.26477 -4.47194L6.91157 -4.77686L16.5001 16.5002Z" fill="#D1E0FF"/>
<path fill-rule="evenodd" clip-rule="evenodd" d="M16.5001 16.4999L6.78223 -4.71644L7.43695 -5.00684L16.5001 16.4999Z" fill="#D0DFFF"/>
<path fill-rule="evenodd" clip-rule="evenodd" d="M16.4999 16.4996L7.30481 -4.94907L7.96745 -5.22363L16.4999 16.4996Z" fill="#CFDEFF"/>
<path fill-rule="evenodd" clip-rule="evenodd" d="M16.5002 16.4994L7.83435 -5.16838L8.50359 -5.42578L16.5002 16.4994Z" fill="#CEDEFF"/>
<path fill-rule="evenodd" clip-rule="evenodd" d="M16.5002 16.4991L8.36902 -5.37465L9.04354 -5.61621L16.5002 16.4991Z" fill="#CDDDFF"/>
<path fill-rule="evenodd" clip-rule="evenodd" d="M16.5001 16.5003L8.90881 -5.56745L9.58861 -5.79053L16.5001 16.5003Z" fill="#CCDCFF"/>
<path fill-rule="evenodd" clip-rule="evenodd" d="M16.5001 16.4999L9.45264 -5.74735L10.1377 -5.95459L16.5001 16.4999Z" fill="#CBDCFF"/>
<path fill-rule="evenodd" clip-rule="evenodd" d="M16.5002 16.4997L10.0005 -5.91392L10.6908 -6.104L16.5002 16.4997Z" fill="#CADBFF"/>
<path fill-rule="evenodd" clip-rule="evenodd" d="M16.4999 16.4994L10.552 -6.06599L11.2463 -6.24023L16.4999 16.4994Z" fill="#C9DAFF"/>
<path fill-rule="evenodd" clip-rule="evenodd" d="M16.5001 16.4993L11.1079 -6.20606L11.8062 -6.36182L16.5001 16.4993Z" fill="#C8DAFF"/>
<path fill-rule="evenodd" clip-rule="evenodd" d="M16.5 16.4991L11.6675 -6.33161L12.3684 -6.47021L16.5 16.4991Z" fill="#C7D9FF"/>
<path fill-rule="evenodd" clip-rule="evenodd" d="M16.5 16.5004L12.2285 -6.44121L12.9334 -6.56396L16.5 16.5004Z" fill="#C6D8FF"/>
<path fill-rule="evenodd" clip-rule="evenodd" d="M16.5 16.5004L12.7921 -6.53893L13.501 -6.64453L16.5 16.5004Z" fill="#C5D8FF"/>
<path fill-rule="evenodd" clip-rule="evenodd" d="M16.5 16.5004L13.3597 -6.62333L14.0699 -6.71045L16.5 16.5004Z" fill="#C4D7FF"/>
<path fill-rule="evenodd" clip-rule="evenodd" d="M16.5 16.499L13.9274 -6.69469L14.6402 -6.76465L16.5 16.499Z" fill="#C3D6FF"/>
<path fill-rule="evenodd" clip-rule="evenodd" d="M16.5 16.4991L14.4976 -6.7514L15.2117 -6.8042L16.5 16.4991Z" fill="#C2D6FF"/>
<path fill-rule="evenodd" clip-rule="evenodd" d="M16.5001 16.4994L15.0692 -6.79332L15.7847 -6.82764L16.5001 16.4994Z" fill="#C1D5FF"/>
<path fill-rule="evenodd" clip-rule="evenodd" d="M16.5002 16.4997L15.6409 -6.82073L16.3563 -6.83789L16.5002 16.4997Z" fill="#C0D4FF"/>
<path fill-rule="evenodd" clip-rule="evenodd" d="M16.5001 16.5L16.2136 -6.83496H16.9291L16.5001 16.5Z" fill="#BFD4FF"/>
<path fill-rule="evenodd" clip-rule="evenodd" d="M16.5 16.5L16.7864 -6.83496L17.5019 -6.81648L16.5 16.5Z" fill="#BED3FF"/>
<path fill-rule="evenodd" clip-rule="evenodd" d="M16.5 16.5001L17.3593 -6.82031L18.0734 -6.78467L16.5 16.5001Z" fill="#BDD2FF"/>
<path fill-rule="evenodd" clip-rule="evenodd" d="M16.5 16.5002L17.9309 -6.79248L18.645 -6.73968L16.5 16.5002Z" fill="#BCD2FF"/>
<path fill-rule="evenodd" clip-rule="evenodd" d="M16.5 16.499L18.5024 -6.75146L19.2152 -6.68151L16.5 16.499Z" fill="#BBD1FF"/>
<path fill-rule="evenodd" clip-rule="evenodd" d="M16.5 16.4994L19.0714 -6.69434L19.7828 -6.60722L16.5 16.4994Z" fill="#BAD0FF"/>
<path fill-rule="evenodd" clip-rule="evenodd" d="M16.5 16.4997L19.6403 -6.62402L20.3491 -6.51974L16.5 16.4997Z" fill="#B9D0FF"/>
<path fill-rule="evenodd" clip-rule="evenodd" d="M16.5 16.5002L20.2066 -6.53906L20.9128 -6.41762L16.5 16.5002Z" fill="#B8CFFF"/>
<path fill-rule="evenodd" clip-rule="evenodd" d="M16.5 16.4992L20.7715 -6.44238L21.4738 -6.30378L16.5 16.4992Z" fill="#B7CEFF"/>
<path fill-rule="evenodd" clip-rule="evenodd" d="M16.5 16.4997L21.3325 -6.33105L22.0321 -6.17397L16.5 16.4997Z" fill="#B6CDFF"/>
<path fill-rule="evenodd" clip-rule="evenodd" d="M16.5 16.5002L21.8922 -6.20508L22.5865 -6.03084L16.5 16.5002Z" fill="#B5CDFF"/>
<path fill-rule="evenodd" clip-rule="evenodd" d="M16.5 16.4995L22.4479 -6.06592L23.137 -5.87584L16.5 16.4995Z" fill="#B4CCFF"/>
<path fill-rule="evenodd" clip-rule="evenodd" d="M16.5 16.5L22.9997 -5.91357L23.6848 -5.70501L16.5 16.5Z" fill="#B3CBFF"/>
<path fill-rule="evenodd" clip-rule="evenodd" d="M16.5 16.4992L23.5475 -5.74805L24.2273 -5.52233L16.5 16.4992Z" fill="#B2CBFF"/>
<path fill-rule="evenodd" clip-rule="evenodd" d="M16.5 16.4999L24.0913 -5.56787L24.7658 -5.32631L16.5 16.4999Z" fill="#B1CAFF"/>
<path fill-rule="evenodd" clip-rule="evenodd" d="M16.5 16.4992L24.6312 -5.37451L25.2991 -5.11711L16.5 16.4992Z" fill="#B0C9FF"/>
<path fill-rule="evenodd" clip-rule="evenodd" d="M16.5 16.4998L25.1645 -5.16797L25.8271 -4.89473L16.5 16.4998Z" fill="#AFC9FF"/>
<path fill-rule="evenodd" clip-rule="evenodd" d="M16.5 16.5004L25.6938 -4.94824L26.3485 -4.65784L16.5 16.5004Z" fill="#AEC8FF"/>
<path fill-rule="evenodd" clip-rule="evenodd" d="M16.5 16.4996L26.2178 -4.7168L26.8646 -4.41056L16.5 16.4996Z" fill="#ADC7FF"/>
<path fill-rule="evenodd" clip-rule="evenodd" d="M16.5 16.5L26.7353 -4.47217L27.3755 -4.15009L16.5 16.5Z" fill="#ACC7FF"/>
<path fill-rule="evenodd" clip-rule="evenodd" d="M16.5 16.5004L27.2474 -4.21436L27.8784 -3.87644L16.5 16.5004Z" fill="#ABC6FF"/>
<path fill-rule="evenodd" clip-rule="evenodd" d="M16.5 16.4993L27.7517 -3.94482L28.376 -3.59238L16.5 16.4993Z" fill="#AAC5FF"/>
<path fill-rule="evenodd" clip-rule="evenodd" d="M16.5 16.4996L28.2506 -3.66211L28.8644 -3.29383L16.5 16.4996Z" fill="#A9C5FF"/>
<path fill-rule="evenodd" clip-rule="evenodd" d="M16.5 16.4996L28.7417 -3.36768L29.3462 -2.98488L16.5 16.4996Z" fill="#A8C4FF"/>
<path fill-rule="evenodd" clip-rule="evenodd" d="M16.5 16.4996L29.2261 -3.06152L29.8214 -2.66288L16.5 16.4996Z" fill="#A7C3FF"/>
<path fill-rule="evenodd" clip-rule="evenodd" d="M16.5 16.4993L29.7026 -2.74365L30.2874 -2.33181L16.5 16.4993Z" fill="#A6C3FF"/>
<path fill-rule="evenodd" clip-rule="evenodd" d="M16.5 16.5004L30.1699 -2.4126L30.7454 -1.98624L16.5 16.5004Z" fill="#A5C2FF"/>
<path fill-rule="evenodd" clip-rule="evenodd" d="M16.5 16.4996L30.6306 -2.07275L31.1942 -1.63187L16.5 16.4996Z" fill="#A4C1FF"/>
<path fill-rule="evenodd" clip-rule="evenodd" d="M16.5 16.5002L31.082 -1.71973L31.6351 -1.26565L16.5 16.5002Z" fill="#A3C1FF"/>
<path fill-rule="evenodd" clip-rule="evenodd" d="M16.5 16.4992L31.5242 -1.35645L32.0668 -0.889165L16.5 16.4992Z" fill="#A2C0FF"/>
<path fill-rule="evenodd" clip-rule="evenodd" d="M16.5 16.4992L31.9585 -0.98291L32.4892 -0.50243L16.5 16.4992Z" fill="#A1BFFF"/>
<path fill-rule="evenodd" clip-rule="evenodd" d="M16.5 16.5003L32.3822 -0.597656L32.901 -0.103976L16.5 16.5003Z" fill="#A0BFFF"/>
<path fill-rule="evenodd" clip-rule="evenodd" d="M16.5 16.4997L32.7967 -0.203613L33.3036 0.303267L16.5 16.4997Z" fill="#9FBEFF"/>
<path fill-rule="evenodd" clip-rule="evenodd" d="M16.5 16.5003L33.202 0.203613L33.6956 0.721053L16.5 16.5003Z" fill="#9EBDFF"/>
<path fill-rule="evenodd" clip-rule="evenodd" d="M16.5 16.5004L33.598 0.618164L34.0784 1.1488L16.5 16.5004Z" fill="#9DBDFF"/>
<path fill-rule="evenodd" clip-rule="evenodd" d="M16.5 16.5L33.9821 1.0415L34.4494 1.58402L16.5 16.5Z" fill="#9CBCFF"/>
<path fill-rule="evenodd" clip-rule="evenodd" d="M16.5 16.4993L34.3556 1.4751L34.8097 2.02818L16.5 16.4993Z" fill="#9BBBFF"/>
<path fill-rule="evenodd" clip-rule="evenodd" d="M16.5 16.4995L34.72 1.91748L35.1595 2.48244L16.5 16.4995Z" fill="#9ABAFF"/>
<path fill-rule="evenodd" clip-rule="evenodd" d="M16.5 16.4993L35.0724 2.36865L35.4988 2.94417L16.5 16.4993Z" fill="#99BAFF"/>
<path fill-rule="evenodd" clip-rule="evenodd" d="M16.5 16.5L35.413 2.83008L35.8248 3.41484L16.5 16.5Z" fill="#98B9FF"/>
<path fill-rule="evenodd" clip-rule="evenodd" d="M16.5 16.5L35.743 3.29736L36.1403 3.89268L16.5 16.5Z" fill="#97B8FF"/>
<path fill-rule="evenodd" clip-rule="evenodd" d="M16.5 16.4996L36.0611 3.77344L36.4439 4.37932L16.5 16.4996Z" fill="#96B8FF"/>
<path fill-rule="evenodd" clip-rule="evenodd" d="M16.5 16.5L36.3673 4.2583L36.7356 4.8721L16.5 16.5Z" fill="#95B7FF"/>
<path fill-rule="evenodd" clip-rule="evenodd" d="M16.5 16.4997L36.6617 4.74902L37.0141 5.37206L16.5 16.4997Z" fill="#94B6FF"/>
<path fill-rule="evenodd" clip-rule="evenodd" d="M16.5 16.5002L36.9442 5.24854L37.2808 5.87949L16.5 16.5002Z" fill="#93B6FF"/>
<path fill-rule="evenodd" clip-rule="evenodd" d="M16.5 16.4999L37.2134 5.75244L37.5355 6.39264L16.5 16.4999Z" fill="#92B5FF"/>
<path fill-rule="evenodd" clip-rule="evenodd" d="M16.5 16.5004L37.4722 6.26514L37.7771 6.91194L16.5 16.5004Z" fill="#91B4FF"/>
<path fill-rule="evenodd" clip-rule="evenodd" d="M16.5 16.5001L37.7164 6.78223L38.0068 7.43695L16.5 16.5001Z" fill="#90B4FF"/>
<path fill-rule="evenodd" clip-rule="evenodd" d="M16.5 16.5003L37.9487 7.30518L38.2219 7.96782L16.5 16.5003Z" fill="#8FB3FF"/>
<path fill-rule="evenodd" clip-rule="evenodd" d="M16.5 16.4998L38.1678 7.83398L38.4252 8.50322L16.5 16.4998Z" fill="#8EB2FF"/>
<path fill-rule="evenodd" clip-rule="evenodd" d="M16.5 16.4999L38.3737 8.36865L38.6153 9.04317L16.5 16.4999Z" fill="#8DB2FF"/>
<path fill-rule="evenodd" clip-rule="evenodd" d="M16.5 16.499L38.5664 8.90771L38.7908 9.58751L16.5 16.499Z" fill="#8CB1FF"/>
<path fill-rule="evenodd" clip-rule="evenodd" d="M16.5 16.5001L38.746 9.45264L38.9545 10.1377L16.5 16.5001Z" fill="#8BB0FF"/>
<path fill-rule="evenodd" clip-rule="evenodd" d="M16.5 16.5002L38.9123 10.0005L39.1037 10.6908L16.5 16.5002Z" fill="#8AB0FF"/>
<path fill-rule="evenodd" clip-rule="evenodd" d="M16.5 16.4992L39.0654 10.5513L39.2396 11.2456L16.5 16.4992Z" fill="#89AFFF"/>
<path fill-rule="evenodd" clip-rule="evenodd" d="M16.5 16.5001L39.2053 11.1079L39.3611 11.8062L16.5 16.5001Z" fill="#88AEFF"/>
<path fill-rule="evenodd" clip-rule="evenodd" d="M16.5 16.5L39.3294 11.6675L39.4693 12.3684L16.5 16.5Z" fill="#87AEFF"/>
<path fill-rule="evenodd" clip-rule="evenodd" d="M16.5 16.5L39.4416 12.2285L39.5644 12.9334L16.5 16.5Z" fill="#86ADFF"/>
<path fill-rule="evenodd" clip-rule="evenodd" d="M16.5 16.5004L39.5393 12.7925L39.6449 13.5013L16.5 16.5004Z" fill="#85ACFF"/>
<path fill-rule="evenodd" clip-rule="evenodd" d="M16.5 16.4997L39.6238 13.3594L39.7109 14.0695L16.5 16.4997Z" fill="#84ACFF"/>
<path fill-rule="evenodd" clip-rule="evenodd" d="M16.5 16.5004L39.6937 13.9277L39.7637 14.6405L16.5 16.5004Z" fill="#83ABFF"/>
<path fill-rule="evenodd" clip-rule="evenodd" d="M16.5 16.5L39.7505 14.4976L39.8033 15.2117L16.5 16.5Z" fill="#82AAFF"/>
<path fill-rule="evenodd" clip-rule="evenodd" d="M16.5 16.4997L39.7927 15.0688L39.827 15.7843L16.5 16.4997Z" fill="#81AAFF"/>
<path fill-rule="evenodd" clip-rule="evenodd" d="M16.5 16.4995L39.8204 15.6401L39.8376 16.3556L16.5 16.4995Z" fill="#80A9FF"/>
<path fill-rule="evenodd" clip-rule="evenodd" d="M16.5 16.4993L39.8336 16.2129V16.9283L16.5 16.4993Z" fill="#7FA8FF"/>
<path fill-rule="evenodd" clip-rule="evenodd" d="M16.5 16.5L39.8336 16.7864L39.8165 17.5019L16.5 16.5Z" fill="#7EA7FF"/>
<path fill-rule="evenodd" clip-rule="evenodd" d="M16.5 16.5L39.8204 17.3593L39.7848 18.0734L16.5 16.5Z" fill="#7DA7FF"/>
<path fill-rule="evenodd" clip-rule="evenodd" d="M16.5 16.5L39.7927 17.9309L39.7399 18.645L16.5 16.5Z" fill="#7CA6FF"/>
<path fill-rule="evenodd" clip-rule="evenodd" d="M16.5 16.5L39.7505 18.5024L39.6805 19.2152L16.5 16.5Z" fill="#7BA5FF"/>
<path fill-rule="evenodd" clip-rule="evenodd" d="M16.5 16.5L39.6937 19.0714L39.6066 19.7828L16.5 16.5Z" fill="#7AA5FF"/>
<path fill-rule="evenodd" clip-rule="evenodd" d="M16.5 16.5L39.6238 19.6403L39.5182 20.3491L16.5 16.5Z" fill="#79A4FF"/>
<path fill-rule="evenodd" clip-rule="evenodd" d="M16.5 16.5L39.5393 20.2066L39.4178 20.9128L16.5 16.5Z" fill="#78A3FF"/>
<path fill-rule="evenodd" clip-rule="evenodd" d="M16.5 16.5L39.4416 20.7715L39.3017 21.4738L16.5 16.5Z" fill="#77A3FF"/>
<path fill-rule="evenodd" clip-rule="evenodd" d="M16.5 16.5L39.3294 21.3325L39.1736 22.0321L16.5 16.5Z" fill="#76A2FF"/>
<path fill-rule="evenodd" clip-rule="evenodd" d="M16.5 16.5L39.2053 21.8922L39.0311 22.5865L16.5 16.5Z" fill="#75A1FF"/>
<path fill-rule="evenodd" clip-rule="evenodd" d="M16.5 16.5L39.0654 22.4479L38.8753 23.137L16.5 16.5Z" fill="#74A1FF"/>
<path fill-rule="evenodd" clip-rule="evenodd" d="M16.5 16.5L38.9123 22.9997L38.705 23.6848L16.5 16.5Z" fill="#73A0FF"/>
<path fill-rule="evenodd" clip-rule="evenodd" d="M16.5 16.5L38.746 23.5475L38.5216 24.2273L16.5 16.5Z" fill="#729FFF"/>
<path fill-rule="evenodd" clip-rule="evenodd" d="M16.5 16.5L38.5664 24.0913L38.3262 24.7658L16.5 16.5Z" fill="#719FFF"/>
<path fill-rule="evenodd" clip-rule="evenodd" d="M16.5 16.5L38.3737 24.6312L38.1163 25.2991L16.5 16.5Z" fill="#709EFF"/>
<path fill-rule="evenodd" clip-rule="evenodd" d="M16.5 16.5L38.1678 25.1645L37.8932 25.8271L16.5 16.5Z" fill="#6F9DFF"/>
<path fill-rule="evenodd" clip-rule="evenodd" d="M16.5 16.5L37.9487 25.6938L37.6583 26.3485L16.5 16.5Z" fill="#6E9DFF"/>
<path fill-rule="evenodd" clip-rule="evenodd" d="M16.5 16.5L37.7164 26.2178L37.4101 26.8646L16.5 16.5Z" fill="#6D9CFF"/>
<path fill-rule="evenodd" clip-rule="evenodd" d="M16.5 16.5L37.4722 26.7353L37.1501 27.3755L16.5 16.5Z" fill="#6C9BFF"/>
<path fill-rule="evenodd" clip-rule="evenodd" d="M16.5 16.5L37.2134 27.2474L36.8768 27.8784L16.5 16.5Z" fill="#6B9BFF"/>
<path fill-rule="evenodd" clip-rule="evenodd" d="M16.5 16.5L36.9442 27.7517L36.5917 28.376L16.5 16.5Z" fill="#6A9AFF"/>
<path fill-rule="evenodd" clip-rule="evenodd" d="M16.5 16.5L36.6617 28.2506L36.2934 28.8644L16.5 16.5Z" fill="#6999FF"/>
<path fill-rule="evenodd" clip-rule="evenodd" d="M16.5 16.5L36.3673 28.7417L35.9845 29.3462L16.5 16.5Z" fill="#6899FF"/>
<path fill-rule="evenodd" clip-rule="evenodd" d="M16.5 16.5L36.0611 29.2261L35.6624 29.8214L16.5 16.5Z" fill="#6798FF"/>
<path fill-rule="evenodd" clip-rule="evenodd" d="M16.5 16.5L35.743 29.7026L35.3311 30.2874L16.5 16.5Z" fill="#6697FF"/>
<path fill-rule="evenodd" clip-rule="evenodd" d="M16.5 16.5L35.413 30.1699L34.9866 30.7454L16.5 16.5Z" fill="#6597FF"/>
<path fill-rule="evenodd" clip-rule="evenodd" d="M16.5 16.5L35.0724 30.6306L34.6315 31.1942L16.5 16.5Z" fill="#6496FF"/>
<path fill-rule="evenodd" clip-rule="evenodd" d="M16.5 16.5L34.72 31.082L34.2659 31.6351L16.5 16.5Z" fill="#6395FF"/>
<path fill-rule="evenodd" clip-rule="evenodd" d="M16.5 16.5L34.3556 31.5242L33.8884 32.0668L16.5 16.5Z" fill="#6294FF"/>
<path fill-rule="evenodd" clip-rule="evenodd" d="M16.5 16.5L33.9821 31.9585L33.5016 32.4892L16.5 16.5Z" fill="#6194FF"/>
<path fill-rule="evenodd" clip-rule="evenodd" d="M16.5 16.5L33.598 32.3822L33.1043 32.901L16.5 16.5Z" fill="#6093FF"/>
<path fill-rule="evenodd" clip-rule="evenodd" d="M16.5 16.5L33.202 32.7967L32.6964 33.3036L16.5 16.5Z" fill="#5F92FF"/>
<path fill-rule="evenodd" clip-rule="evenodd" d="M16.5 16.5L32.7967 33.202L32.2793 33.6956L16.5 16.5Z" fill="#5E92FF"/>
<path fill-rule="evenodd" clip-rule="evenodd" d="M16.5 16.5L32.3822 33.598L31.8516 34.0784L16.5 16.5Z" fill="#5D91FF"/>
<path fill-rule="evenodd" clip-rule="evenodd" d="M16.5 16.5L31.9585 33.9821L31.416 34.4494L16.5 16.5Z" fill="#5C90FF"/>
<path fill-rule="evenodd" clip-rule="evenodd" d="M16.5 16.5L31.5242 34.3556L30.9712 34.8097L16.5 16.5Z" fill="#5B90FF"/>
<path fill-rule="evenodd" clip-rule="evenodd" d="M16.5 16.5L31.082 34.72L30.5171 35.1595L16.5 16.5Z" fill="#5A8FFF"/>
<path fill-rule="evenodd" clip-rule="evenodd" d="M16.5 16.5L30.6306 35.0724L30.0551 35.4988L16.5 16.5Z" fill="#598EFF"/>
<path fill-rule="evenodd" clip-rule="evenodd" d="M16.5 16.5L30.1699 35.413L29.5852 35.8248L16.5 16.5Z" fill="#588EFF"/>
<path fill-rule="evenodd" clip-rule="evenodd" d="M16.5 16.5L29.7026 35.743L29.106 36.1403L16.5 16.5Z" fill="#578DFF"/>
<path fill-rule="evenodd" clip-rule="evenodd" d="M16.5 16.5L29.2261 36.0611L28.6202 36.4439L16.5 16.5Z" fill="#568CFF"/>
<path fill-rule="evenodd" clip-rule="evenodd" d="M16.5 16.5L28.7417 36.3673L28.1279 36.7356L16.5 16.5Z" fill="#558CFF"/>
<path fill-rule="evenodd" clip-rule="evenodd" d="M16.5 16.5L28.2506 36.6617L27.6276 37.0141L16.5 16.5Z" fill="#548BFF"/>
<path fill-rule="evenodd" clip-rule="evenodd" d="M16.5 16.5L27.7517 36.9442L27.1207 37.2808L16.5 16.5Z" fill="#538AFF"/>
<path fill-rule="evenodd" clip-rule="evenodd" d="M16.5 16.5L27.2474 37.2134L26.6072 37.5355L16.5 16.5Z" fill="#528AFF"/>
<path fill-rule="evenodd" clip-rule="evenodd" d="M16.5 16.5L26.7353 37.4722L26.0885 37.7771L16.5 16.5Z" fill="#5189FF"/>
<path fill-rule="evenodd" clip-rule="evenodd" d="M16.5 16.5L26.2178 37.7164L25.5631 38.0068L16.5 16.5Z" fill="#5088FF"/>
<path fill-rule="evenodd" clip-rule="evenodd" d="M16.5 16.5L25.6938 37.9487L25.0325 38.2219L16.5 16.5Z" fill="#4F88FF"/>
<path fill-rule="evenodd" clip-rule="evenodd" d="M16.5 16.5L25.1645 38.1678L24.4966 38.4252L16.5 16.5Z" fill="#4E87FF"/>
<path fill-rule="evenodd" clip-rule="evenodd" d="M16.5 16.5L24.6312 38.3737L23.9567 38.6153L16.5 16.5Z" fill="#4D86FF"/>
<path fill-rule="evenodd" clip-rule="evenodd" d="M16.5 16.5L24.0913 38.5664L23.4115 38.7908L16.5 16.5Z" fill="#4C86FF"/>
<path fill-rule="evenodd" clip-rule="evenodd" d="M16.5 16.5L23.5475 38.746L22.8624 38.9545L16.5 16.5Z" fill="#4B85FF"/>
<path fill-rule="evenodd" clip-rule="evenodd" d="M16.5 16.5L22.9997 38.9123L22.3093 39.1037L16.5 16.5Z" fill="#4A84FF"/>
<path fill-rule="evenodd" clip-rule="evenodd" d="M16.5 16.5L22.4479 39.0654L21.7523 39.2396L16.5 16.5Z" fill="#4984FF"/>
<path fill-rule="evenodd" clip-rule="evenodd" d="M16.5 16.5L21.8922 39.2053L21.1939 39.3611L16.5 16.5Z" fill="#4883FF"/>
<path fill-rule="evenodd" clip-rule="evenodd" d="M16.5 16.5L21.3325 39.3294L20.6303 39.4693L16.5 16.5Z" fill="#4782FF"/>
<path fill-rule="evenodd" clip-rule="evenodd" d="M16.5 16.5L20.7715 39.4416L20.0666 39.5644L16.5 16.5Z" fill="#4681FF"/>
<path fill-rule="evenodd" clip-rule="evenodd" d="M16.5 16.5L20.2066 39.5393L19.499 39.6449L16.5 16.5Z" fill="#4581FF"/>
<path fill-rule="evenodd" clip-rule="evenodd" d="M16.5 16.5L19.6403 39.6238L18.9301 39.7109L16.5 16.5Z" fill="#4480FF"/>
<path fill-rule="evenodd" clip-rule="evenodd" d="M16.5 16.5L19.0714 39.6937L18.3599 39.7637L16.5 16.5Z" fill="#437FFF"/>
<path fill-rule="evenodd" clip-rule="evenodd" d="M16.5 16.5L18.5024 39.7505L17.7883 39.8033L16.5 16.5Z" fill="#427FFF"/>
<path fill-rule="evenodd" clip-rule="evenodd" d="M16.5 16.5L17.9309 39.7927L17.2154 39.827L16.5 16.5Z" fill="#417EFF"/>
<path fill-rule="evenodd" clip-rule="evenodd" d="M16.5 16.5L17.3593 39.8204L16.6426 39.8376L16.5 16.5Z" fill="#407DFF"/>
<path fill-rule="evenodd" clip-rule="evenodd" d="M16.5 16.5L16.7865 39.8336H16.0697L16.5 16.5Z" fill="#3F7DFF"/>
<path fill-rule="evenodd" clip-rule="evenodd" d="M16.4999 16.5L16.2135 39.8336L15.498 39.8165L16.4999 16.5Z" fill="#3E7CFF"/>
<path fill-rule="evenodd" clip-rule="evenodd" d="M16.5001 16.5L15.6407 39.8204L14.9253 39.7848L16.5001 16.5Z" fill="#3D7BFF"/>
<path fill-rule="evenodd" clip-rule="evenodd" d="M16.5001 16.5L15.0692 39.7927L14.3551 39.7399L16.5001 16.5Z" fill="#3C7BFF"/>
<path fill-rule="evenodd" clip-rule="evenodd" d="M16.5002 16.5L14.4977 39.7505L13.7849 39.6805L16.5002 16.5Z" fill="#3B7AFF"/>
<path fill-rule="evenodd" clip-rule="evenodd" d="M16.5001 16.5L13.9274 39.6937L13.2173 39.6066L16.5001 16.5Z" fill="#3A79FF"/>
<path fill-rule="evenodd" clip-rule="evenodd" d="M16.5002 16.5L13.36 39.6238L12.6511 39.5182L16.5002 16.5Z" fill="#3979FF"/>
<path fill-rule="evenodd" clip-rule="evenodd" d="M16.4999 16.5L12.792 39.5393L12.0872 39.4178L16.4999 16.5Z" fill="#3878FF"/>
<path fill-rule="evenodd" clip-rule="evenodd" d="M16.5002 16.5L12.2287 39.4416L11.5265 39.3017L16.5002 16.5Z" fill="#3777FF"/>
<path fill-rule="evenodd" clip-rule="evenodd" d="M16.5001 16.5L11.6676 39.3294L10.968 39.1736L16.5001 16.5Z" fill="#3677FF"/>
<path fill-rule="evenodd" clip-rule="evenodd" d="M16.5001 16.5L11.1079 39.2053L10.4136 39.0311L16.5001 16.5Z" fill="#3576FF"/>
<path fill-rule="evenodd" clip-rule="evenodd" d="M16.5 16.5L10.5521 39.0654L9.86169 38.8753L16.5 16.5Z" fill="#3475FF"/>
<path fill-rule="evenodd" clip-rule="evenodd" d="M16.5001 16.5L10.0004 38.9123L9.31531 38.705L16.5001 16.5Z" fill="#3375FF"/>
<path fill-rule="evenodd" clip-rule="evenodd" d="M16.5002 16.5L9.45275 38.746L8.77295 38.5216L16.5002 16.5Z" fill="#3274FF"/>
<path fill-rule="evenodd" clip-rule="evenodd" d="M16.5001 16.5L8.90877 38.5664L8.23425 38.3262L16.5001 16.5Z" fill="#3173FF"/>
<path fill-rule="evenodd" clip-rule="evenodd" d="M16.5002 16.5L8.36897 38.3737L7.70105 38.1163L16.5002 16.5Z" fill="#3073FF"/>
<path fill-rule="evenodd" clip-rule="evenodd" d="M16.5001 16.5L7.83429 38.1678L7.17297 37.8932L16.5001 16.5Z" fill="#2F72FF"/>
<path fill-rule="evenodd" clip-rule="evenodd" d="M16.5 16.5L7.30489 37.9487L6.65149 37.6583L16.5 16.5Z" fill="#2E71FF"/>
<path fill-rule="evenodd" clip-rule="evenodd" d="M16.5001 16.5L6.7823 37.7164L6.1355 37.4101L16.5001 16.5Z" fill="#2D71FF"/>
<path fill-rule="evenodd" clip-rule="evenodd" d="M16.5001 16.5L6.26483 37.4722L5.62463 37.1501L16.5001 16.5Z" fill="#2C70FF"/>
<path fill-rule="evenodd" clip-rule="evenodd" d="M16.5002 16.5L5.75279 37.2134L5.12183 36.8768L16.5002 16.5Z" fill="#2B6FFF"/>
<path fill-rule="evenodd" clip-rule="evenodd" d="M16.5002 16.5L5.24851 36.9442L4.62415 36.5917L16.5002 16.5Z" fill="#2A6EFF"/>
<path fill-rule="evenodd" clip-rule="evenodd" d="M16.5001 16.5L4.74942 36.6617L4.13562 36.2934L16.5001 16.5Z" fill="#296EFF"/>
<path fill-rule="evenodd" clip-rule="evenodd" d="M16.5001 16.5L4.25847 36.3673L3.65259 35.9845L16.5001 16.5Z" fill="#286DFF"/>
<path fill-rule="evenodd" clip-rule="evenodd" d="M16.5002 16.5L3.77403 36.0611L3.17871 35.6624L16.5002 16.5Z" fill="#276CFF"/>
<path fill-rule="evenodd" clip-rule="evenodd" d="M16.4999 16.5L3.29728 35.743L2.71252 35.3311L16.4999 16.5Z" fill="#266CFF"/>
<path fill-rule="evenodd" clip-rule="evenodd" d="M16.5002 16.5L2.83028 35.413L2.25476 34.9866L16.5002 16.5Z" fill="#256BFF"/>
<path fill-rule="evenodd" clip-rule="evenodd" d="M16.5002 16.5L2.36965 35.0724L1.80469 34.6315L16.5002 16.5Z" fill="#246AFF"/>
<path fill-rule="evenodd" clip-rule="evenodd" d="M16.5 16.5L1.91795 34.72L1.36487 34.2659L16.5 16.5Z" fill="#236AFF"/>
<path fill-rule="evenodd" clip-rule="evenodd" d="M16.5002 16.5L1.47599 34.3556L0.933472 33.8884L16.5002 16.5Z" fill="#2269FF"/>
<path fill-rule="evenodd" clip-rule="evenodd" d="M16.5 16.5L1.0415 33.9821L0.510864 33.5016L16.5 16.5Z" fill="#2168FF"/>
<path fill-rule="evenodd" clip-rule="evenodd" d="M16.5002 16.5L0.618003 33.598L0.0992432 33.1043L16.5002 16.5Z" fill="#2068FF"/>
<path fill-rule="evenodd" clip-rule="evenodd" d="M16.5 16.5L0.203291 33.202L-0.303589 32.6964L16.5 16.5Z" fill="#1F67FF"/>
<path fill-rule="evenodd" clip-rule="evenodd" d="M16.5002 16.5L-0.203075 32.7967L-0.695435 32.2793L16.5002 16.5Z" fill="#1E66FF"/>
<path fill-rule="evenodd" clip-rule="evenodd" d="M16.4999 16.5L-0.598011 32.3822L-1.07849 31.8516L16.4999 16.5Z" fill="#1D66FF"/>
<path fill-rule="evenodd" clip-rule="evenodd" d="M16.4999 16.5L-0.982183 31.9585L-1.44946 31.416L16.4999 16.5Z" fill="#1C65FF"/>
<path fill-rule="evenodd" clip-rule="evenodd" d="M16.4999 16.5L-1.35573 31.5242L-1.80981 30.9712L16.4999 16.5Z" fill="#1B64FF"/>
<path fill-rule="evenodd" clip-rule="evenodd" d="M16.5 16.5L-1.71999 31.082L-2.15955 30.5171L16.5 16.5Z" fill="#1A64FF"/>
<path fill-rule="evenodd" clip-rule="evenodd" d="M16.5001 16.5L-2.0723 30.6306L-2.49866 30.0551L16.5001 16.5Z" fill="#1963FF"/>
<path fill-rule="evenodd" clip-rule="evenodd" d="M16.5002 16.5L-2.41275 30.1699L-2.82458 29.5852L16.5002 16.5Z" fill="#1862FF"/>
<path fill-rule="evenodd" clip-rule="evenodd" d="M16.5 16.5L-2.74294 29.7026L-3.14026 29.106L16.5 16.5Z" fill="#1762FF"/>
<path fill-rule="evenodd" clip-rule="evenodd" d="M16.5 16.5L-3.06105 29.2261L-3.44385 28.6202L16.5 16.5Z" fill="#1661FF"/>
<path fill-rule="evenodd" clip-rule="evenodd" d="M16.5002 16.5L-3.36707 28.7417L-3.73535 28.1279L16.5002 16.5Z" fill="#1560FF"/>
<path fill-rule="evenodd" clip-rule="evenodd" d="M16.5001 16.5L-3.6616 28.2506L-4.01404 27.6276L16.5001 16.5Z" fill="#1460FF"/>
<path fill-rule="evenodd" clip-rule="evenodd" d="M16.5 16.5L-3.94418 27.7517L-4.2821 27.1207L16.5 16.5Z" fill="#135FFF"/>
<path fill-rule="evenodd" clip-rule="evenodd" d="M16.5 16.5L-4.21476 27.2474L-4.53552 26.6072L16.5 16.5Z" fill="#125EFF"/>
<path fill-rule="evenodd" clip-rule="evenodd" d="M16.5002 16.5L-4.47194 26.7353L-4.77686 26.0885L16.5002 16.5Z" fill="#115EFF"/>
<path fill-rule="evenodd" clip-rule="evenodd" d="M16.4999 16.5L-4.71644 26.2178L-5.00684 25.5631L16.4999 16.5Z" fill="#105DFF"/>
<path fill-rule="evenodd" clip-rule="evenodd" d="M16.5 16.5L-4.94871 25.6938L-5.22327 25.0325L16.5 16.5Z" fill="#0F5CFF"/>
<path fill-rule="evenodd" clip-rule="evenodd" d="M16.5002 16.5L-5.16765 25.1645L-5.42505 24.4966L16.5002 16.5Z" fill="#0E5BFF"/>
<path fill-rule="evenodd" clip-rule="evenodd" d="M16.5002 16.5L-5.37355 24.6312L-5.61511 23.9567L16.5002 16.5Z" fill="#0D5BFF"/>
<path fill-rule="evenodd" clip-rule="evenodd" d="M16.4999 16.5L-5.56781 24.0913L-5.79089 23.4115L16.4999 16.5Z" fill="#0C5AFF"/>
<path fill-rule="evenodd" clip-rule="evenodd" d="M16.4999 16.5L-5.74735 23.5475L-5.95459 22.8624L16.4999 16.5Z" fill="#0B59FF"/>
<path fill-rule="evenodd" clip-rule="evenodd" d="M16.5 16.5L-5.91356 22.9997L-6.10364 22.3093L16.5 16.5Z" fill="#0A59FF"/>
<path fill-rule="evenodd" clip-rule="evenodd" d="M16.5001 16.5L-6.06526 22.4479L-6.2395 21.7523L16.5001 16.5Z" fill="#0958FF"/>
<path fill-rule="evenodd" clip-rule="evenodd" d="M16.5 16.5L-6.20532 21.8922L-6.36108 21.1939L16.5 16.5Z" fill="#0857FF"/>
<path fill-rule="evenodd" clip-rule="evenodd" d="M16.5002 16.5L-6.33052 21.3325L-6.46912 20.6303L16.5002 16.5Z" fill="#0757FF"/>
<path fill-rule="evenodd" clip-rule="evenodd" d="M16.5 16.5L-6.44157 20.7715L-6.56433 20.0666L16.5 16.5Z" fill="#0656FF"/>
<path fill-rule="evenodd" clip-rule="evenodd" d="M16.5 16.5L-6.5393 20.2066L-6.6449 19.499L16.5 16.5Z" fill="#0555FF"/>
<path fill-rule="evenodd" clip-rule="evenodd" d="M16.5001 16.5L-6.6237 19.6403L-6.71082 18.9301L16.5001 16.5Z" fill="#0455FF"/>
<path fill-rule="evenodd" clip-rule="evenodd" d="M16.5001 16.5L-6.69359 19.0714L-6.76355 18.3599L16.5001 16.5Z" fill="#0354FF"/>
<path fill-rule="evenodd" clip-rule="evenodd" d="M16.5002 16.5L-6.7503 18.5024L-6.8031 17.7883L16.5002 16.5Z" fill="#0253FF"/>
<path fill-rule="evenodd" clip-rule="evenodd" d="M16.5001 16.5L-6.79258 17.9309L-6.8269 17.2154L16.5001 16.5Z" fill="#0153FF"/>
<path fill-rule="evenodd" clip-rule="evenodd" d="M16.5001 16.5L-6.82036 17.3593L-6.83752 16.6426L16.5001 16.5Z" fill="#0052FF"/>
<path fill-rule="evenodd" clip-rule="evenodd" d="M16.5 16.4993L-6.83496 16.7858V16.2129L16.5 16.4993Z" fill="white"/>
</g>
</svg>
