<svg width="33" height="33" viewBox="0 0 33 33" fill="none" xmlns="http://www.w3.org/2000/svg">
<g clip-path="url(#clip0_1139_28900)">
<path d="M16.5 33C25.6127 33 33 25.6127 33 16.5C33 7.3873 25.6127 0 16.5 0C7.3873 0 0 7.3873 0 16.5C0 25.6127 7.3873 33 16.5 33Z" fill="#FF0420"/>
<path d="M11.6886 20.8824C10.7052 20.8824 9.90001 20.6514 9.27301 20.1894C8.65261 19.7208 8.34241 19.0476 8.34241 18.183C8.34241 17.9982 8.36221 17.7804 8.40181 17.5164C8.50741 16.9224 8.65921 16.2096 8.85721 15.3714C9.41821 13.101 10.8702 11.9658 13.2066 11.9658C13.8402 11.9658 14.4144 12.0714 14.916 12.2892C15.4176 12.4938 15.8136 12.8106 16.104 13.233C16.3944 13.6488 16.5396 14.1438 16.5396 14.718C16.5396 14.8896 16.5198 15.1074 16.4802 15.3714C16.3548 16.104 16.2096 16.8234 16.0314 17.5164C15.741 18.645 15.246 19.4964 14.5332 20.0574C13.827 20.6118 12.8766 20.8824 11.6886 20.8824ZM11.8668 19.1004C12.3288 19.1004 12.7182 18.9618 13.0416 18.6912C13.3716 18.4206 13.6092 18.0048 13.7478 17.4372C13.9392 16.6584 14.0844 15.9852 14.1834 15.4044C14.2164 15.2328 14.2362 15.0546 14.2362 14.8698C14.2362 14.1174 13.8468 13.7412 13.0614 13.7412C12.5994 13.7412 12.2034 13.8798 11.8734 14.1504C11.55 14.421 11.319 14.8368 11.1804 15.4044C11.0286 15.9588 10.8834 16.632 10.7316 17.4372C10.6986 17.6022 10.6788 17.7738 10.6788 17.9586C10.6722 18.7242 11.0748 19.1004 11.8668 19.1004Z" fill="white"/>
<path d="M17.1138 20.7637C17.0214 20.7637 16.9554 20.7373 16.9026 20.6779C16.863 20.6119 16.8498 20.5393 16.863 20.4535L18.5724 12.4015C18.5856 12.3091 18.6318 12.2365 18.711 12.1771C18.7836 12.1177 18.8628 12.0913 18.9486 12.0913H22.242C23.1594 12.0913 23.892 12.2827 24.4464 12.6589C25.0074 13.0417 25.2912 13.5895 25.2912 14.3089C25.2912 14.5135 25.2648 14.7313 25.2186 14.9557C25.014 15.9061 24.5982 16.6057 23.9646 17.0611C23.3442 17.5165 22.4928 17.7409 21.4104 17.7409H19.7406L19.173 20.4535C19.1532 20.5459 19.1136 20.6185 19.0344 20.6779C18.9618 20.7373 18.8826 20.7637 18.7968 20.7637H17.1138ZM21.4962 16.0315C21.846 16.0315 22.143 15.9391 22.4004 15.7477C22.6644 15.5563 22.836 15.2857 22.9218 14.9293C22.9482 14.7907 22.9614 14.6653 22.9614 14.5597C22.9614 14.3221 22.8888 14.1373 22.7502 14.0119C22.6116 13.8799 22.3674 13.8139 22.0308 13.8139H20.5458L20.0772 16.0315H21.4962Z" fill="white"/>
</g>
<defs>
<clipPath id="clip0_1139_28900">
<rect width="33" height="33" fill="white"/>
</clipPath>
</defs>
</svg>
