<svg width="33" height="33" viewBox="0 0 33 33" fill="none" xmlns="http://www.w3.org/2000/svg">
<g clip-path="url(#clip0_859_25718)">
<path d="M23.5715 28.2858C23.5715 29.5857 21.7662 31.0478 18.9126 31.5858C17.748 31.5858 17.1804 31.5858 15.3468 31.5858C8.95394 31.5858 3.77148 30.1084 3.77148 28.2858C3.77148 26.4633 8.95394 24.9858 15.3468 24.9858C21.7398 24.9858 23.5715 26.4633 23.5715 28.2858Z" fill="black"/>
<path d="M32.0571 15.1367C32.0571 23.1868 24.9275 31.1143 16.8283 31.1143C8.72917 31.1143 0.471436 22.6262 0.471436 14.5761C0.471436 6.52594 7.03707 0 15.1362 0C23.2354 0 32.0571 7.08656 32.0571 15.1367Z" fill="#F61F7D"/>
<path fill-rule="evenodd" clip-rule="evenodd" d="M26.3819 25.1154C28.9539 22.3654 30.5531 18.7272 30.5531 15.1367C30.5531 11.671 28.6426 8.27178 25.6516 5.68962C22.6632 3.10987 18.7715 1.50553 15.1362 1.50553C7.85778 1.50553 1.97552 7.36739 1.97552 14.5761C1.97552 18.1067 3.80635 21.8815 6.68453 24.8078C9.5627 27.734 13.2876 29.6088 16.8283 29.6088C20.3811 29.6088 23.8112 27.8639 26.3819 25.1154ZM16.8283 31.1143C24.9275 31.1143 32.0571 23.1868 32.0571 15.1367C32.0571 7.08656 23.2354 0 15.1362 0C7.03707 0 0.471436 6.52594 0.471436 14.5761C0.471436 22.6262 8.72917 31.1143 16.8283 31.1143Z" fill="black"/>
<path d="M33 16.7357C33 24.9372 26.3515 31.5857 18.15 31.5857C9.94861 31.5857 3.30005 24.9372 3.30005 16.7357C3.30005 8.5343 9.94861 1.88574 18.15 1.88574C26.3515 1.88574 33 8.5343 33 16.7357Z" fill="white"/>
<path fill-rule="evenodd" clip-rule="evenodd" d="M18.15 30.0756C25.5174 30.0756 31.4899 24.1031 31.4899 16.7357C31.4899 9.36835 25.5174 3.39591 18.15 3.39591C10.7827 3.39591 4.81022 9.36835 4.81022 16.7357C4.81022 24.1031 10.7827 30.0756 18.15 30.0756ZM18.15 31.5857C26.3515 31.5857 33 24.9372 33 16.7357C33 8.5343 26.3515 1.88574 18.15 1.88574C9.94861 1.88574 3.30005 8.5343 3.30005 16.7357C3.30005 24.9372 9.94861 31.5857 18.15 31.5857Z" fill="black"/>
<path fill-rule="evenodd" clip-rule="evenodd" d="M4.15693 14.6142L0.942871 12.0327L1.97166 10.8428L5.18573 13.4243L4.15693 14.6142Z" fill="black"/>
<path d="M8.01428 13.6714H9.37657L9.80679 17.792L10.3535 13.6801H11.42L11.9937 17.7658L12.4328 13.6714H13.7772L12.9078 20.7428H11.5097L10.8913 16.4737L10.3087 20.7428H8.8926L8.01428 13.6714Z" fill="black"/>
<path d="M15.0074 13.6714H18.2698V14.7365H16.6117V16.4912H17.8754V17.5738H16.6117V19.6865H18.2877V20.7428H15.0074V13.6714Z" fill="black"/>
<path d="M20.1275 14.8325H19.0161V13.6714H22.8431V14.8325H21.7407V20.7428H20.1275V14.8325Z" fill="black"/>
<path d="M23.9479 13.6714H25.5521V16.5349H26.6725V13.6714H28.2857V20.7428H26.6725V17.6523H25.5521V20.7428H23.9479V13.6714Z" fill="black"/>
<g clip-path="url(#clip1_859_25718)">
<mask id="mask0_859_25718" style="mask-type:luminance" maskUnits="userSpaceOnUse" x="22" y="22" width="11" height="11">
<path d="M27.5 33C24.4622 33 22 30.5378 22 27.5C22 24.4622 24.4622 22 27.5 22C30.5378 22 33 24.4622 33 27.5C33 30.5378 30.5378 33 27.5 33Z" fill="white"/>
</mask>
<g mask="url(#mask0_859_25718)">
<path fill-rule="evenodd" clip-rule="evenodd" d="M27.5 27.5L19.7208 27.452L19.7279 27.166L27.5 27.5Z" fill="#FEFEFF"/>
<path fill-rule="evenodd" clip-rule="evenodd" d="M27.5 27.5L19.7266 27.2136L19.7384 26.9751L27.5 27.5Z" fill="#FDFEFF"/>
<path fill-rule="evenodd" clip-rule="evenodd" d="M27.5001 27.4997L19.7358 27.0227L19.7534 26.7847L27.5001 27.4997Z" fill="#FCFDFF"/>
<path fill-rule="evenodd" clip-rule="evenodd" d="M27.5 27.4998L19.7499 26.8323L19.7732 26.5947L27.5 27.4998Z" fill="#FBFCFF"/>
<path fill-rule="evenodd" clip-rule="evenodd" d="M27.5 27.5L19.7688 26.6425L19.7978 26.4058L27.5 27.5Z" fill="#FAFCFF"/>
<path fill-rule="evenodd" clip-rule="evenodd" d="M27.5 27.4998L19.7921 26.4531L19.8269 26.2168L27.5 27.4998Z" fill="#F9FBFF"/>
<path fill-rule="evenodd" clip-rule="evenodd" d="M27.5001 27.4997L19.8203 26.2638L19.8608 26.0288L27.5001 27.4997Z" fill="#F8FAFF"/>
<path fill-rule="evenodd" clip-rule="evenodd" d="M27.5 27.4997L19.8528 26.0759L19.899 25.8418L27.5 27.4997Z" fill="#F7FAFF"/>
<path fill-rule="evenodd" clip-rule="evenodd" d="M27.5 27.4998L19.8898 25.889L19.9421 25.6558L27.5 27.4998Z" fill="#F6F9FF"/>
<path fill-rule="evenodd" clip-rule="evenodd" d="M27.5001 27.5L19.9316 25.7026L19.9897 25.4712L27.5001 27.5Z" fill="#F5F8FF"/>
<path fill-rule="evenodd" clip-rule="evenodd" d="M27.5001 27.4999L19.9783 25.5172L20.0416 25.2871L27.5001 27.4999Z" fill="#F4F8FF"/>
<path fill-rule="evenodd" clip-rule="evenodd" d="M27.5 27.4999L20.0288 25.3333L20.0983 25.105L27.5 27.4999Z" fill="#F3F7FF"/>
<path fill-rule="evenodd" clip-rule="evenodd" d="M27.5 27.5001L20.0842 25.1509L20.1595 24.9243L27.5 27.5001Z" fill="#F2F6FF"/>
<path fill-rule="evenodd" clip-rule="evenodd" d="M27.5001 27.4999L20.1442 24.9695L20.2247 24.7446L27.5001 27.4999Z" fill="#F1F6FF"/>
<path fill-rule="evenodd" clip-rule="evenodd" d="M27.5 27.4999L20.2087 24.7895L20.2945 24.5669L27.5 27.4999Z" fill="#F0F5FF"/>
<path fill-rule="evenodd" clip-rule="evenodd" d="M27.5001 27.4997L20.2775 24.6111L20.3685 24.3906L27.5001 27.4997Z" fill="#EFF4FF"/>
<path fill-rule="evenodd" clip-rule="evenodd" d="M27.5 27.5001L20.3505 24.4351L20.4473 24.2173L27.5 27.5001Z" fill="#EEF3FF"/>
<path fill-rule="evenodd" clip-rule="evenodd" d="M27.5 27.4998L20.4279 24.2605L20.5299 24.0449L27.5 27.4998Z" fill="#EDF3FF"/>
<path fill-rule="evenodd" clip-rule="evenodd" d="M27.5 27.4997L20.5093 24.0879L20.6166 23.8745L27.5 27.4997Z" fill="#ECF2FF"/>
<path fill-rule="evenodd" clip-rule="evenodd" d="M27.5 27.4998L20.5951 23.9174L20.7077 23.707L27.5 27.4998Z" fill="#EBF1FF"/>
<path fill-rule="evenodd" clip-rule="evenodd" d="M27.5 27.4997L20.6853 23.7491L20.8028 23.541L27.5 27.4997Z" fill="#EAF1FF"/>
<path fill-rule="evenodd" clip-rule="evenodd" d="M27.5 27.4999L20.7794 23.583L20.9022 23.3784L27.5 27.4999Z" fill="#E9F0FF"/>
<path fill-rule="evenodd" clip-rule="evenodd" d="M27.5 27.4998L20.8776 23.4192L21.0052 23.2173L27.5 27.4998Z" fill="#E8EFFF"/>
<path fill-rule="evenodd" clip-rule="evenodd" d="M27.5 27.5L20.9796 23.258L21.1125 23.0596L27.5 27.5Z" fill="#E7EFFF"/>
<path fill-rule="evenodd" clip-rule="evenodd" d="M27.5 27.5001L21.0857 23.0992L21.223 22.9043L27.5 27.5001Z" fill="#E6EEFF"/>
<path fill-rule="evenodd" clip-rule="evenodd" d="M27.5 27.4999L21.1957 22.9433L21.3378 22.7515L27.5 27.4999Z" fill="#E5EDFF"/>
<path fill-rule="evenodd" clip-rule="evenodd" d="M27.5 27.5001L21.3092 22.7899L21.4562 22.6016L27.5 27.5001Z" fill="#E4EDFF"/>
<path fill-rule="evenodd" clip-rule="evenodd" d="M27.5001 27.5001L21.4268 22.6394L21.5781 22.4551L27.5001 27.5001Z" fill="#E3ECFF"/>
<path fill-rule="evenodd" clip-rule="evenodd" d="M27.5 27.5L21.5481 22.4919L21.7039 22.311L27.5 27.5Z" fill="#E2EBFF"/>
<path fill-rule="evenodd" clip-rule="evenodd" d="M27.5 27.5001L21.6726 22.3473L21.8328 22.1704L27.5 27.5001Z" fill="#E1EBFF"/>
<path fill-rule="evenodd" clip-rule="evenodd" d="M27.5 27.4997L21.8007 22.2056L21.9652 22.0327L27.5 27.4997Z" fill="#E0EAFF"/>
<path fill-rule="evenodd" clip-rule="evenodd" d="M27.5 27.5001L21.9323 22.0679L22.1012 21.8989L27.5 27.5001Z" fill="#DFE9FF"/>
<path fill-rule="evenodd" clip-rule="evenodd" d="M27.5 27.4999L22.0677 21.9322L22.2402 21.7681L27.5 27.4999Z" fill="#DEE9FF"/>
<path fill-rule="evenodd" clip-rule="evenodd" d="M27.5 27.5001L22.2059 21.8008L22.3828 21.6406L27.5 27.5001Z" fill="#DDE8FF"/>
<path fill-rule="evenodd" clip-rule="evenodd" d="M27.5 27.4997L22.3472 21.6724L22.528 21.5166L27.5 27.4997Z" fill="#DCE7FF"/>
<path fill-rule="evenodd" clip-rule="evenodd" d="M27.5 27.4997L22.4919 21.5478L22.6763 21.3965L27.5 27.4997Z" fill="#DBE7FF"/>
<path fill-rule="evenodd" clip-rule="evenodd" d="M27.5001 27.5001L22.6394 21.4268L22.8277 21.2803L27.5001 27.5001Z" fill="#DAE6FF"/>
<path fill-rule="evenodd" clip-rule="evenodd" d="M27.5 27.4999L22.7898 21.3091L22.9816 21.167L27.5 27.4999Z" fill="#D9E5FF"/>
<path fill-rule="evenodd" clip-rule="evenodd" d="M27.5 27.4997L22.9434 21.1954L23.1383 21.0581L27.5 27.4997Z" fill="#D8E5FF"/>
<path fill-rule="evenodd" clip-rule="evenodd" d="M27.5 27.4999L23.0991 21.0856L23.2976 20.9531L27.5 27.4999Z" fill="#D7E4FF"/>
<path fill-rule="evenodd" clip-rule="evenodd" d="M27.5 27.5L23.2579 20.9797L23.4599 20.8521L27.5 27.5Z" fill="#D6E3FF"/>
<path fill-rule="evenodd" clip-rule="evenodd" d="M27.5 27.5001L23.4194 20.8776L23.624 20.7549L27.5 27.5001Z" fill="#D5E3FF"/>
<path fill-rule="evenodd" clip-rule="evenodd" d="M27.5 27.4997L23.5831 20.7791L23.7908 20.6616L27.5 27.4997Z" fill="#D4E2FF"/>
<path fill-rule="evenodd" clip-rule="evenodd" d="M27.5001 27.5001L23.7495 20.6854L23.9598 20.5728L27.5001 27.5001Z" fill="#D3E1FF"/>
<path fill-rule="evenodd" clip-rule="evenodd" d="M27.5001 27.5001L23.9176 20.5952L24.131 20.4883L27.5001 27.5001Z" fill="#D2E0FF"/>
<path fill-rule="evenodd" clip-rule="evenodd" d="M27.5 27.5001L24.0883 20.5094L24.3039 20.4077L27.5 27.5001Z" fill="#D1E0FF"/>
<path fill-rule="evenodd" clip-rule="evenodd" d="M27.5 27.5L24.2607 20.4279L24.479 20.3311L27.5 27.5Z" fill="#D0DFFF"/>
<path fill-rule="evenodd" clip-rule="evenodd" d="M27.5 27.4999L24.4349 20.3503L24.6558 20.2588L27.5 27.4999Z" fill="#CFDEFF"/>
<path fill-rule="evenodd" clip-rule="evenodd" d="M27.5001 27.4998L24.6115 20.2772L24.8345 20.1914L27.5001 27.4998Z" fill="#CEDEFF"/>
<path fill-rule="evenodd" clip-rule="evenodd" d="M27.5001 27.4997L24.7897 20.2084L25.0145 20.1279L27.5001 27.4997Z" fill="#CDDDFF"/>
<path fill-rule="evenodd" clip-rule="evenodd" d="M27.5 27.5001L24.9696 20.1442L25.1962 20.0698L27.5 27.5001Z" fill="#CCDCFF"/>
<path fill-rule="evenodd" clip-rule="evenodd" d="M27.5 27.5L25.1509 20.0842L25.3792 20.0151L27.5 27.5Z" fill="#CBDCFF"/>
<path fill-rule="evenodd" clip-rule="evenodd" d="M27.5001 27.4999L25.3335 20.0287L25.5636 19.9653L27.5001 27.4999Z" fill="#CADBFF"/>
<path fill-rule="evenodd" clip-rule="evenodd" d="M27.5 27.4998L25.5173 19.978L25.7488 19.9199L27.5 27.4998Z" fill="#C9DAFF"/>
<path fill-rule="evenodd" clip-rule="evenodd" d="M27.5 27.4998L25.7026 19.9313L25.9354 19.8794L27.5 27.4998Z" fill="#C8DAFF"/>
<path fill-rule="evenodd" clip-rule="evenodd" d="M27.5 27.4997L25.8892 19.8895L26.1228 19.8433L27.5 27.4997Z" fill="#C7D9FF"/>
<path fill-rule="evenodd" clip-rule="evenodd" d="M27.5 27.5001L26.0762 19.8529L26.3111 19.812L27.5 27.5001Z" fill="#C6D8FF"/>
<path fill-rule="evenodd" clip-rule="evenodd" d="M27.5 27.5001L26.264 19.8204L26.5003 19.7852L27.5 27.5001Z" fill="#C5D8FF"/>
<path fill-rule="evenodd" clip-rule="evenodd" d="M27.5 27.5001L26.4532 19.7922L26.69 19.7632L27.5 27.5001Z" fill="#C4D7FF"/>
<path fill-rule="evenodd" clip-rule="evenodd" d="M27.5 27.4997L26.6425 19.7684L26.8801 19.7451L27.5 27.4997Z" fill="#C3D6FF"/>
<path fill-rule="evenodd" clip-rule="evenodd" d="M27.5 27.4997L26.8325 19.7495L27.0706 19.7319L27.5 27.4997Z" fill="#C2D6FF"/>
<path fill-rule="evenodd" clip-rule="evenodd" d="M27.5 27.4998L27.0231 19.7356L27.2616 19.7241L27.5 27.4998Z" fill="#C1D5FF"/>
<path fill-rule="evenodd" clip-rule="evenodd" d="M27.5001 27.4999L27.2136 19.7264L27.4521 19.7207L27.5001 27.4999Z" fill="#C0D4FF"/>
<path fill-rule="evenodd" clip-rule="evenodd" d="M27.5 27.5L27.4045 19.7217H27.643L27.5 27.5Z" fill="#BFD4FF"/>
<path fill-rule="evenodd" clip-rule="evenodd" d="M27.5 27.5L27.5955 19.7217L27.834 19.7278L27.5 27.5Z" fill="#BED3FF"/>
<path fill-rule="evenodd" clip-rule="evenodd" d="M27.5 27.5L27.7864 19.7266L28.0245 19.7384L27.5 27.5Z" fill="#BDD2FF"/>
<path fill-rule="evenodd" clip-rule="evenodd" d="M27.5 27.5001L27.977 19.7358L28.215 19.7534L27.5 27.5001Z" fill="#BCD2FF"/>
<path fill-rule="evenodd" clip-rule="evenodd" d="M27.5 27.4997L28.1675 19.7495L28.4051 19.7728L27.5 27.4997Z" fill="#BBD1FF"/>
<path fill-rule="evenodd" clip-rule="evenodd" d="M27.5 27.4998L28.3571 19.7686L28.5943 19.7976L27.5 27.4998Z" fill="#BAD0FF"/>
<path fill-rule="evenodd" clip-rule="evenodd" d="M27.5 27.4999L28.5468 19.792L28.783 19.8268L27.5 27.4999Z" fill="#B9D0FF"/>
<path fill-rule="evenodd" clip-rule="evenodd" d="M27.5 27.5001L28.7355 19.8203L28.9709 19.8608L27.5 27.5001Z" fill="#B8CFFF"/>
<path fill-rule="evenodd" clip-rule="evenodd" d="M27.5 27.4997L28.9238 19.8525L29.1579 19.8987L27.5 27.4997Z" fill="#B7CEFF"/>
<path fill-rule="evenodd" clip-rule="evenodd" d="M27.5 27.4999L29.1108 19.8896L29.344 19.942L27.5 27.4999Z" fill="#B6CDFF"/>
<path fill-rule="evenodd" clip-rule="evenodd" d="M27.5 27.5001L29.2974 19.9316L29.5288 19.9897L27.5 27.5001Z" fill="#B5CDFF"/>
<path fill-rule="evenodd" clip-rule="evenodd" d="M27.5 27.4998L29.4826 19.978L29.7123 20.0414L27.5 27.4998Z" fill="#B4CCFF"/>
<path fill-rule="evenodd" clip-rule="evenodd" d="M27.5 27.5L29.6666 20.0288L29.8949 20.0983L27.5 27.5Z" fill="#B3CBFF"/>
<path fill-rule="evenodd" clip-rule="evenodd" d="M27.5 27.4997L29.8492 20.084L30.0758 20.1592L27.5 27.4997Z" fill="#B2CBFF"/>
<path fill-rule="evenodd" clip-rule="evenodd" d="M27.5 27.5L30.0304 20.144L30.2553 20.2246L27.5 27.5Z" fill="#B1CAFF"/>
<path fill-rule="evenodd" clip-rule="evenodd" d="M27.5 27.4997L30.2104 20.2085L30.433 20.2943L27.5 27.4997Z" fill="#B0C9FF"/>
<path fill-rule="evenodd" clip-rule="evenodd" d="M27.5 27.4999L30.3882 20.2773L30.609 20.3684L27.5 27.4999Z" fill="#AFC9FF"/>
<path fill-rule="evenodd" clip-rule="evenodd" d="M27.5 27.5001L30.5646 20.3506L30.7828 20.4474L27.5 27.5001Z" fill="#AEC8FF"/>
<path fill-rule="evenodd" clip-rule="evenodd" d="M27.5 27.4999L30.7393 20.4277L30.9549 20.5298L27.5 27.4999Z" fill="#ADC7FF"/>
<path fill-rule="evenodd" clip-rule="evenodd" d="M27.5 27.5L30.9118 20.5093L31.1252 20.6166L27.5 27.5Z" fill="#ACC7FF"/>
<path fill-rule="evenodd" clip-rule="evenodd" d="M27.5 27.5001L31.0825 20.5952L31.2928 20.7079L27.5 27.5001Z" fill="#ABC6FF"/>
<path fill-rule="evenodd" clip-rule="evenodd" d="M27.5 27.4998L31.2506 20.6851L31.4587 20.8025L27.5 27.4998Z" fill="#AAC5FF"/>
<path fill-rule="evenodd" clip-rule="evenodd" d="M27.5 27.4999L31.4169 20.7793L31.6215 20.9021L27.5 27.4999Z" fill="#A9C5FF"/>
<path fill-rule="evenodd" clip-rule="evenodd" d="M27.5 27.4999L31.5806 20.8774L31.7821 21.005L27.5 27.4999Z" fill="#A8C4FF"/>
<path fill-rule="evenodd" clip-rule="evenodd" d="M27.5 27.4999L31.742 20.9795L31.9405 21.1124L27.5 27.4999Z" fill="#A7C3FF"/>
<path fill-rule="evenodd" clip-rule="evenodd" d="M27.5 27.4998L31.9009 21.0854L32.0958 21.2227L27.5 27.4998Z" fill="#A6C3FF"/>
<path fill-rule="evenodd" clip-rule="evenodd" d="M27.5 27.5001L32.0566 21.1958L32.2485 21.3379L27.5 27.5001Z" fill="#A5C2FF"/>
<path fill-rule="evenodd" clip-rule="evenodd" d="M27.5 27.4999L32.2102 21.3091L32.3981 21.456L27.5 27.4999Z" fill="#A4C1FF"/>
<path fill-rule="evenodd" clip-rule="evenodd" d="M27.5 27.5001L32.3607 21.4268L32.545 21.5781L27.5 27.5001Z" fill="#A3C1FF"/>
<path fill-rule="evenodd" clip-rule="evenodd" d="M27.5 27.4997L32.5081 21.5479L32.6889 21.7036L27.5 27.4997Z" fill="#A2C0FF"/>
<path fill-rule="evenodd" clip-rule="evenodd" d="M27.5 27.4997L32.6528 21.6724L32.8297 21.8325L27.5 27.4997Z" fill="#A1BFFF"/>
<path fill-rule="evenodd" clip-rule="evenodd" d="M27.5 27.5001L32.7941 21.8008L32.967 21.9653L27.5 27.5001Z" fill="#A0BFFF"/>
<path fill-rule="evenodd" clip-rule="evenodd" d="M27.5 27.4999L32.9322 21.9321L33.1012 22.1011L27.5 27.4999Z" fill="#9FBEFF"/>
<path fill-rule="evenodd" clip-rule="evenodd" d="M27.5 27.5001L33.0673 22.0679L33.2319 22.2404L27.5 27.5001Z" fill="#9EBDFF"/>
<path fill-rule="evenodd" clip-rule="evenodd" d="M27.5 27.5001L33.1993 22.2061L33.3595 22.3829L27.5 27.5001Z" fill="#9DBDFF"/>
<path fill-rule="evenodd" clip-rule="evenodd" d="M27.5 27.5L33.3274 22.3472L33.4831 22.528L27.5 27.5Z" fill="#9CBCFF"/>
<path fill-rule="evenodd" clip-rule="evenodd" d="M27.5 27.4998L33.4519 22.4917L33.6032 22.6761L27.5 27.4998Z" fill="#9BBBFF"/>
<path fill-rule="evenodd" clip-rule="evenodd" d="M27.5 27.4998L33.5733 22.6392L33.7198 22.8275L27.5 27.4998Z" fill="#9ABAFF"/>
<path fill-rule="evenodd" clip-rule="evenodd" d="M27.5 27.4998L33.6908 22.7896L33.8329 22.9814L27.5 27.4998Z" fill="#99BAFF"/>
<path fill-rule="evenodd" clip-rule="evenodd" d="M27.5 27.5L33.8043 22.9434L33.9416 23.1383L27.5 27.5Z" fill="#98B9FF"/>
<path fill-rule="evenodd" clip-rule="evenodd" d="M27.5 27.5L33.9143 23.0991L34.0468 23.2976L27.5 27.5Z" fill="#97B8FF"/>
<path fill-rule="evenodd" clip-rule="evenodd" d="M27.5 27.4999L34.0204 23.2578L34.148 23.4598L27.5 27.4999Z" fill="#96B8FF"/>
<path fill-rule="evenodd" clip-rule="evenodd" d="M27.5 27.5L34.1224 23.4194L34.2452 23.624L27.5 27.5Z" fill="#95B7FF"/>
<path fill-rule="evenodd" clip-rule="evenodd" d="M27.5 27.4999L34.2206 23.583L34.338 23.7907L27.5 27.4999Z" fill="#94B6FF"/>
<path fill-rule="evenodd" clip-rule="evenodd" d="M27.5 27.5001L34.3147 23.7495L34.4269 23.9598L27.5 27.5001Z" fill="#93B6FF"/>
<path fill-rule="evenodd" clip-rule="evenodd" d="M27.5 27.5L34.4045 23.9175L34.5118 24.1309L27.5 27.5Z" fill="#92B5FF"/>
<path fill-rule="evenodd" clip-rule="evenodd" d="M27.5 27.5001L34.4907 24.0884L34.5924 24.304L27.5 27.5001Z" fill="#91B4FF"/>
<path fill-rule="evenodd" clip-rule="evenodd" d="M27.5 27.5L34.5721 24.2607L34.6689 24.479L27.5 27.5Z" fill="#90B4FF"/>
<path fill-rule="evenodd" clip-rule="evenodd" d="M27.5 27.5001L34.6496 24.4351L34.7406 24.6559L27.5 27.5001Z" fill="#8FB3FF"/>
<path fill-rule="evenodd" clip-rule="evenodd" d="M27.5 27.4999L34.7226 24.6113L34.8084 24.8344L27.5 27.4999Z" fill="#8EB2FF"/>
<path fill-rule="evenodd" clip-rule="evenodd" d="M27.5 27.5L34.7912 24.7896L34.8718 25.0144L27.5 27.5Z" fill="#8DB2FF"/>
<path fill-rule="evenodd" clip-rule="evenodd" d="M27.5 27.4997L34.8555 24.9692L34.9303 25.1958L27.5 27.4997Z" fill="#8CB1FF"/>
<path fill-rule="evenodd" clip-rule="evenodd" d="M27.5 27.5L34.9153 25.1509L34.9848 25.3792L27.5 27.5Z" fill="#8BB0FF"/>
<path fill-rule="evenodd" clip-rule="evenodd" d="M27.5 27.5001L34.9708 25.3335L35.0346 25.5636L27.5 27.5001Z" fill="#8AB0FF"/>
<path fill-rule="evenodd" clip-rule="evenodd" d="M27.5 27.4997L35.0218 25.5171L35.0799 25.7485L27.5 27.4997Z" fill="#89AFFF"/>
<path fill-rule="evenodd" clip-rule="evenodd" d="M27.5 27.5L35.0684 25.7026L35.1204 25.9354L27.5 27.5Z" fill="#88AEFF"/>
<path fill-rule="evenodd" clip-rule="evenodd" d="M27.5 27.5L35.1098 25.8892L35.1564 26.1228L27.5 27.5Z" fill="#87AEFF"/>
<path fill-rule="evenodd" clip-rule="evenodd" d="M27.5 27.5L35.1472 26.0762L35.1881 26.3111L27.5 27.5Z" fill="#86ADFF"/>
<path fill-rule="evenodd" clip-rule="evenodd" d="M27.5 27.5001L35.1798 26.2642L35.215 26.5004L27.5 27.5001Z" fill="#85ACFF"/>
<path fill-rule="evenodd" clip-rule="evenodd" d="M27.5 27.4999L35.2079 26.4531L35.237 26.6898L27.5 27.4999Z" fill="#84ACFF"/>
<path fill-rule="evenodd" clip-rule="evenodd" d="M27.5 27.5001L35.2312 26.6426L35.2546 26.8802L27.5 27.5001Z" fill="#83ABFF"/>
<path fill-rule="evenodd" clip-rule="evenodd" d="M27.5 27.5L35.2502 26.8325L35.2678 27.0706L27.5 27.5Z" fill="#82AAFF"/>
<path fill-rule="evenodd" clip-rule="evenodd" d="M27.5 27.4999L35.2642 27.0229L35.2757 27.2614L27.5 27.4999Z" fill="#81AAFF"/>
<path fill-rule="evenodd" clip-rule="evenodd" d="M27.5 27.4998L35.2735 27.2134L35.2792 27.4519L27.5 27.4998Z" fill="#80A9FF"/>
<path fill-rule="evenodd" clip-rule="evenodd" d="M27.5 27.4998L35.2779 27.4043V27.6428L27.5 27.4998Z" fill="#7FA8FF"/>
<path fill-rule="evenodd" clip-rule="evenodd" d="M27.5 27.5L35.2779 27.5955L35.2722 27.834L27.5 27.5Z" fill="#7EA7FF"/>
<path fill-rule="evenodd" clip-rule="evenodd" d="M27.5 27.5L35.2735 27.7864L35.2616 28.0245L27.5 27.5Z" fill="#7DA7FF"/>
<path fill-rule="evenodd" clip-rule="evenodd" d="M27.5 27.5L35.2642 27.977L35.2466 28.215L27.5 27.5Z" fill="#7CA6FF"/>
<path fill-rule="evenodd" clip-rule="evenodd" d="M27.5 27.5L35.2502 28.1675L35.2268 28.4051L27.5 27.5Z" fill="#7BA5FF"/>
<path fill-rule="evenodd" clip-rule="evenodd" d="M27.5 27.5L35.2312 28.3571L35.2022 28.5943L27.5 27.5Z" fill="#7AA5FF"/>
<path fill-rule="evenodd" clip-rule="evenodd" d="M27.5 27.5L35.2079 28.5468L35.1727 28.783L27.5 27.5Z" fill="#79A4FF"/>
<path fill-rule="evenodd" clip-rule="evenodd" d="M27.5 27.5L35.1798 28.7355L35.1393 28.9709L27.5 27.5Z" fill="#78A3FF"/>
<path fill-rule="evenodd" clip-rule="evenodd" d="M27.5 27.5L35.1472 28.9238L35.1006 29.1579L27.5 27.5Z" fill="#77A3FF"/>
<path fill-rule="evenodd" clip-rule="evenodd" d="M27.5 27.5L35.1098 29.1108L35.0579 29.344L27.5 27.5Z" fill="#76A2FF"/>
<path fill-rule="evenodd" clip-rule="evenodd" d="M27.5 27.5L35.0684 29.2974L35.0104 29.5288L27.5 27.5Z" fill="#75A1FF"/>
<path fill-rule="evenodd" clip-rule="evenodd" d="M27.5 27.5L35.0218 29.4826L34.9584 29.7123L27.5 27.5Z" fill="#74A1FF"/>
<path fill-rule="evenodd" clip-rule="evenodd" d="M27.5 27.5L34.9708 29.6666L34.9017 29.8949L27.5 27.5Z" fill="#73A0FF"/>
<path fill-rule="evenodd" clip-rule="evenodd" d="M27.5 27.5L34.9153 29.8492L34.8405 30.0758L27.5 27.5Z" fill="#729FFF"/>
<path fill-rule="evenodd" clip-rule="evenodd" d="M27.5 27.5L34.8555 30.0304L34.7754 30.2553L27.5 27.5Z" fill="#719FFF"/>
<path fill-rule="evenodd" clip-rule="evenodd" d="M27.5 27.5L34.7912 30.2104L34.7054 30.433L27.5 27.5Z" fill="#709EFF"/>
<path fill-rule="evenodd" clip-rule="evenodd" d="M27.5 27.5L34.7226 30.3882L34.6311 30.609L27.5 27.5Z" fill="#6F9DFF"/>
<path fill-rule="evenodd" clip-rule="evenodd" d="M27.5 27.5L34.6496 30.5646L34.5528 30.7828L27.5 27.5Z" fill="#6E9DFF"/>
<path fill-rule="evenodd" clip-rule="evenodd" d="M27.5 27.5L34.5721 30.7393L34.47 30.9549L27.5 27.5Z" fill="#6D9CFF"/>
<path fill-rule="evenodd" clip-rule="evenodd" d="M27.5 27.5L34.4907 30.9118L34.3834 31.1252L27.5 27.5Z" fill="#6C9BFF"/>
<path fill-rule="evenodd" clip-rule="evenodd" d="M27.5 27.5L34.4045 31.0825L34.2923 31.2928L27.5 27.5Z" fill="#6B9BFF"/>
<path fill-rule="evenodd" clip-rule="evenodd" d="M27.5 27.5L34.3147 31.2506L34.1972 31.4587L27.5 27.5Z" fill="#6A9AFF"/>
<path fill-rule="evenodd" clip-rule="evenodd" d="M27.5 27.5L34.2206 31.4169L34.0978 31.6215L27.5 27.5Z" fill="#6999FF"/>
<path fill-rule="evenodd" clip-rule="evenodd" d="M27.5 27.5L34.1224 31.5806L33.9948 31.7821L27.5 27.5Z" fill="#6899FF"/>
<path fill-rule="evenodd" clip-rule="evenodd" d="M27.5 27.5L34.0204 31.742L33.8875 31.9405L27.5 27.5Z" fill="#6798FF"/>
<path fill-rule="evenodd" clip-rule="evenodd" d="M27.5 27.5L33.9143 31.9009L33.777 32.0958L27.5 27.5Z" fill="#6697FF"/>
<path fill-rule="evenodd" clip-rule="evenodd" d="M27.5 27.5L33.8043 32.0566L33.6622 32.2485L27.5 27.5Z" fill="#6597FF"/>
<path fill-rule="evenodd" clip-rule="evenodd" d="M27.5 27.5L33.6908 32.2102L33.5438 32.3981L27.5 27.5Z" fill="#6496FF"/>
<path fill-rule="evenodd" clip-rule="evenodd" d="M27.5 27.5L33.5733 32.3607L33.422 32.545L27.5 27.5Z" fill="#6395FF"/>
<path fill-rule="evenodd" clip-rule="evenodd" d="M27.5 27.5L33.4519 32.5081L33.2961 32.6889L27.5 27.5Z" fill="#6294FF"/>
<path fill-rule="evenodd" clip-rule="evenodd" d="M27.5 27.5L33.3274 32.6528L33.1672 32.8297L27.5 27.5Z" fill="#6194FF"/>
<path fill-rule="evenodd" clip-rule="evenodd" d="M27.5 27.5L33.1993 32.7941L33.0348 32.967L27.5 27.5Z" fill="#6093FF"/>
<path fill-rule="evenodd" clip-rule="evenodd" d="M27.5 27.5L33.0673 32.9322L32.8988 33.1012L27.5 27.5Z" fill="#5F92FF"/>
<path fill-rule="evenodd" clip-rule="evenodd" d="M27.5 27.5L32.9322 33.0673L32.7598 33.2319L27.5 27.5Z" fill="#5E92FF"/>
<path fill-rule="evenodd" clip-rule="evenodd" d="M27.5 27.5L32.7941 33.1993L32.6172 33.3595L27.5 27.5Z" fill="#5D91FF"/>
<path fill-rule="evenodd" clip-rule="evenodd" d="M27.5 27.5L32.6528 33.3274L32.472 33.4831L27.5 27.5Z" fill="#5C90FF"/>
<path fill-rule="evenodd" clip-rule="evenodd" d="M27.5 27.5L32.5081 33.4519L32.3237 33.6032L27.5 27.5Z" fill="#5B90FF"/>
<path fill-rule="evenodd" clip-rule="evenodd" d="M27.5 27.5L32.3607 33.5733L32.1724 33.7198L27.5 27.5Z" fill="#5A8FFF"/>
<path fill-rule="evenodd" clip-rule="evenodd" d="M27.5 27.5L32.2102 33.6908L32.0184 33.8329L27.5 27.5Z" fill="#598EFF"/>
<path fill-rule="evenodd" clip-rule="evenodd" d="M27.5 27.5L32.0566 33.8043L31.8617 33.9416L27.5 27.5Z" fill="#588EFF"/>
<path fill-rule="evenodd" clip-rule="evenodd" d="M27.5 27.5L31.9009 33.9143L31.702 34.0468L27.5 27.5Z" fill="#578DFF"/>
<path fill-rule="evenodd" clip-rule="evenodd" d="M27.5 27.5L31.742 34.0204L31.5401 34.148L27.5 27.5Z" fill="#568CFF"/>
<path fill-rule="evenodd" clip-rule="evenodd" d="M27.5 27.5L31.5806 34.1224L31.376 34.2452L27.5 27.5Z" fill="#558CFF"/>
<path fill-rule="evenodd" clip-rule="evenodd" d="M27.5 27.5L31.4169 34.2206L31.2092 34.338L27.5 27.5Z" fill="#548BFF"/>
<path fill-rule="evenodd" clip-rule="evenodd" d="M27.5 27.5L31.2506 34.3147L31.0402 34.4269L27.5 27.5Z" fill="#538AFF"/>
<path fill-rule="evenodd" clip-rule="evenodd" d="M27.5 27.5L31.0825 34.4045L30.8691 34.5118L27.5 27.5Z" fill="#528AFF"/>
<path fill-rule="evenodd" clip-rule="evenodd" d="M27.5 27.5L30.9118 34.4907L30.6962 34.5924L27.5 27.5Z" fill="#5189FF"/>
<path fill-rule="evenodd" clip-rule="evenodd" d="M27.5 27.5L30.7393 34.5721L30.521 34.6689L27.5 27.5Z" fill="#5088FF"/>
<path fill-rule="evenodd" clip-rule="evenodd" d="M27.5 27.5L30.5646 34.6496L30.3442 34.7406L27.5 27.5Z" fill="#4F88FF"/>
<path fill-rule="evenodd" clip-rule="evenodd" d="M27.5 27.5L30.3882 34.7226L30.1655 34.8084L27.5 27.5Z" fill="#4E87FF"/>
<path fill-rule="evenodd" clip-rule="evenodd" d="M27.5 27.5L30.2104 34.7912L29.9856 34.8718L27.5 27.5Z" fill="#4D86FF"/>
<path fill-rule="evenodd" clip-rule="evenodd" d="M27.5 27.5L30.0304 34.8555L29.8038 34.9303L27.5 27.5Z" fill="#4C86FF"/>
<path fill-rule="evenodd" clip-rule="evenodd" d="M27.5 27.5L29.8492 34.9153L29.6208 34.9848L27.5 27.5Z" fill="#4B85FF"/>
<path fill-rule="evenodd" clip-rule="evenodd" d="M27.5 27.5L29.6666 34.9708L29.4364 35.0346L27.5 27.5Z" fill="#4A84FF"/>
<path fill-rule="evenodd" clip-rule="evenodd" d="M27.5 27.5L29.4826 35.0218L29.2508 35.0799L27.5 27.5Z" fill="#4984FF"/>
<path fill-rule="evenodd" clip-rule="evenodd" d="M27.5 27.5L29.2974 35.0684L29.0646 35.1204L27.5 27.5Z" fill="#4883FF"/>
<path fill-rule="evenodd" clip-rule="evenodd" d="M27.5 27.5L29.1108 35.1098L28.8768 35.1564L27.5 27.5Z" fill="#4782FF"/>
<path fill-rule="evenodd" clip-rule="evenodd" d="M27.5 27.5L28.9238 35.1472L28.6889 35.1881L27.5 27.5Z" fill="#4681FF"/>
<path fill-rule="evenodd" clip-rule="evenodd" d="M27.5 27.5L28.7355 35.1798L28.4997 35.215L27.5 27.5Z" fill="#4581FF"/>
<path fill-rule="evenodd" clip-rule="evenodd" d="M27.5 27.5L28.5468 35.2079L28.31 35.237L27.5 27.5Z" fill="#4480FF"/>
<path fill-rule="evenodd" clip-rule="evenodd" d="M27.5 27.5L28.3571 35.2312L28.12 35.2546L27.5 27.5Z" fill="#437FFF"/>
<path fill-rule="evenodd" clip-rule="evenodd" d="M27.5 27.5L28.1675 35.2502L27.9294 35.2678L27.5 27.5Z" fill="#427FFF"/>
<path fill-rule="evenodd" clip-rule="evenodd" d="M27.5 27.5L27.977 35.2642L27.7385 35.2757L27.5 27.5Z" fill="#417EFF"/>
<path fill-rule="evenodd" clip-rule="evenodd" d="M27.5 27.5L27.7864 35.2735L27.5475 35.2792L27.5 27.5Z" fill="#407DFF"/>
<path fill-rule="evenodd" clip-rule="evenodd" d="M27.5 27.5L27.5955 35.2779H27.3566L27.5 27.5Z" fill="#3F7DFF"/>
<path fill-rule="evenodd" clip-rule="evenodd" d="M27.5 27.5L27.4045 35.2779L27.166 35.2722L27.5 27.5Z" fill="#3E7CFF"/>
<path fill-rule="evenodd" clip-rule="evenodd" d="M27.5 27.5L27.2136 35.2735L26.9751 35.2616L27.5 27.5Z" fill="#3D7BFF"/>
<path fill-rule="evenodd" clip-rule="evenodd" d="M27.5 27.5L27.0231 35.2642L26.785 35.2466L27.5 27.5Z" fill="#3C7BFF"/>
<path fill-rule="evenodd" clip-rule="evenodd" d="M27.5001 27.5L26.8326 35.2502L26.595 35.2268L27.5001 27.5Z" fill="#3B7AFF"/>
<path fill-rule="evenodd" clip-rule="evenodd" d="M27.5 27.5L26.6425 35.2312L26.4058 35.2022L27.5 27.5Z" fill="#3A79FF"/>
<path fill-rule="evenodd" clip-rule="evenodd" d="M27.5001 27.5L26.4533 35.2079L26.217 35.1727L27.5001 27.5Z" fill="#3979FF"/>
<path fill-rule="evenodd" clip-rule="evenodd" d="M27.5 27.5L26.264 35.1798L26.0291 35.1393L27.5 27.5Z" fill="#3878FF"/>
<path fill-rule="evenodd" clip-rule="evenodd" d="M27.5001 27.5L26.0762 35.1472L25.8422 35.1006L27.5001 27.5Z" fill="#3777FF"/>
<path fill-rule="evenodd" clip-rule="evenodd" d="M27.5 27.5L25.8892 35.1098L25.656 35.0579L27.5 27.5Z" fill="#3677FF"/>
<path fill-rule="evenodd" clip-rule="evenodd" d="M27.5 27.5L25.7026 35.0684L25.4712 35.0104L27.5 27.5Z" fill="#3576FF"/>
<path fill-rule="evenodd" clip-rule="evenodd" d="M27.5 27.5L25.5174 35.0218L25.2872 34.9584L27.5 27.5Z" fill="#3475FF"/>
<path fill-rule="evenodd" clip-rule="evenodd" d="M27.5 27.5L25.3335 34.9708L25.1051 34.9017L27.5 27.5Z" fill="#3375FF"/>
<path fill-rule="evenodd" clip-rule="evenodd" d="M27.5001 27.5L25.1509 34.9153L24.9243 34.8405L27.5001 27.5Z" fill="#3274FF"/>
<path fill-rule="evenodd" clip-rule="evenodd" d="M27.5 27.5L24.9696 34.8555L24.7448 34.7754L27.5 27.5Z" fill="#3173FF"/>
<path fill-rule="evenodd" clip-rule="evenodd" d="M27.5001 27.5L24.7897 34.7912L24.567 34.7054L27.5001 27.5Z" fill="#3073FF"/>
<path fill-rule="evenodd" clip-rule="evenodd" d="M27.5 27.5L24.6114 34.7226L24.391 34.6311L27.5 27.5Z" fill="#2F72FF"/>
<path fill-rule="evenodd" clip-rule="evenodd" d="M27.5 27.5L24.435 34.6496L24.2172 34.5528L27.5 27.5Z" fill="#2E71FF"/>
<path fill-rule="evenodd" clip-rule="evenodd" d="M27.5 27.5L24.2608 34.5721L24.0452 34.47L27.5 27.5Z" fill="#2D71FF"/>
<path fill-rule="evenodd" clip-rule="evenodd" d="M27.5 27.5L24.0883 34.4907L23.8749 34.3834L27.5 27.5Z" fill="#2C70FF"/>
<path fill-rule="evenodd" clip-rule="evenodd" d="M27.5001 27.5L23.9176 34.4045L23.7073 34.2923L27.5001 27.5Z" fill="#2B6FFF"/>
<path fill-rule="evenodd" clip-rule="evenodd" d="M27.5001 27.5L23.7495 34.3147L23.5414 34.1972L27.5001 27.5Z" fill="#2A6EFF"/>
<path fill-rule="evenodd" clip-rule="evenodd" d="M27.5 27.5L23.5831 34.2206L23.3785 34.0978L27.5 27.5Z" fill="#296EFF"/>
<path fill-rule="evenodd" clip-rule="evenodd" d="M27.5 27.5L23.4195 34.1224L23.2175 33.9948L27.5 27.5Z" fill="#286DFF"/>
<path fill-rule="evenodd" clip-rule="evenodd" d="M27.5 27.5L23.258 34.0204L23.0596 33.8875L27.5 27.5Z" fill="#276CFF"/>
<path fill-rule="evenodd" clip-rule="evenodd" d="M27.5 27.5L23.0991 33.9143L22.9042 33.777L27.5 27.5Z" fill="#266CFF"/>
<path fill-rule="evenodd" clip-rule="evenodd" d="M27.5001 27.5L22.9434 33.8043L22.7516 33.6622L27.5001 27.5Z" fill="#256BFF"/>
<path fill-rule="evenodd" clip-rule="evenodd" d="M27.5001 27.5L22.7899 33.6908L22.6016 33.5438L27.5001 27.5Z" fill="#246AFF"/>
<path fill-rule="evenodd" clip-rule="evenodd" d="M27.5 27.5L22.6393 33.5733L22.455 33.422L27.5 27.5Z" fill="#236AFF"/>
<path fill-rule="evenodd" clip-rule="evenodd" d="M27.5001 27.5L22.492 33.4519L22.3112 33.2961L27.5001 27.5Z" fill="#2269FF"/>
<path fill-rule="evenodd" clip-rule="evenodd" d="M27.5 27.5L22.3472 33.3274L22.1703 33.1672L27.5 27.5Z" fill="#2168FF"/>
<path fill-rule="evenodd" clip-rule="evenodd" d="M27.5001 27.5L22.206 33.1993L22.0331 33.0348L27.5001 27.5Z" fill="#2068FF"/>
<path fill-rule="evenodd" clip-rule="evenodd" d="M27.5 27.5L22.0678 33.0673L21.8988 32.8988L27.5 27.5Z" fill="#1F67FF"/>
<path fill-rule="evenodd" clip-rule="evenodd" d="M27.5001 27.5L21.9323 32.9322L21.7682 32.7598L27.5001 27.5Z" fill="#1E66FF"/>
<path fill-rule="evenodd" clip-rule="evenodd" d="M27.5 27.5L21.8007 32.7941L21.6405 32.6172L27.5 27.5Z" fill="#1D66FF"/>
<path fill-rule="evenodd" clip-rule="evenodd" d="M27.5 27.5L21.6726 32.6528L21.5168 32.472L27.5 27.5Z" fill="#1C65FF"/>
<path fill-rule="evenodd" clip-rule="evenodd" d="M27.5 27.5L21.5481 32.5081L21.3967 32.3237L27.5 27.5Z" fill="#1B64FF"/>
<path fill-rule="evenodd" clip-rule="evenodd" d="M27.5 27.5L21.4267 32.3607L21.2802 32.1724L27.5 27.5Z" fill="#1A64FF"/>
<path fill-rule="evenodd" clip-rule="evenodd" d="M27.5 27.5L21.3092 32.2102L21.1671 32.0184L27.5 27.5Z" fill="#1963FF"/>
<path fill-rule="evenodd" clip-rule="evenodd" d="M27.5001 27.5L21.1958 32.0566L21.0585 31.8617L27.5001 27.5Z" fill="#1862FF"/>
<path fill-rule="evenodd" clip-rule="evenodd" d="M27.5 27.5L21.0857 31.9009L20.9532 31.702L27.5 27.5Z" fill="#1762FF"/>
<path fill-rule="evenodd" clip-rule="evenodd" d="M27.5 27.5L20.9797 31.742L20.8521 31.5401L27.5 27.5Z" fill="#1661FF"/>
<path fill-rule="evenodd" clip-rule="evenodd" d="M27.5001 27.5L20.8776 31.5806L20.7549 31.376L27.5001 27.5Z" fill="#1560FF"/>
<path fill-rule="evenodd" clip-rule="evenodd" d="M27.5 27.5L20.7795 31.4169L20.662 31.2092L27.5 27.5Z" fill="#1460FF"/>
<path fill-rule="evenodd" clip-rule="evenodd" d="M27.5 27.5L20.6853 31.2506L20.5726 31.0402L27.5 27.5Z" fill="#135FFF"/>
<path fill-rule="evenodd" clip-rule="evenodd" d="M27.5 27.5L20.5951 31.0825L20.4882 30.8691L27.5 27.5Z" fill="#125EFF"/>
<path fill-rule="evenodd" clip-rule="evenodd" d="M27.5001 27.5L20.5094 30.9118L20.4077 30.6962L27.5001 27.5Z" fill="#115EFF"/>
<path fill-rule="evenodd" clip-rule="evenodd" d="M27.5 27.5L20.4279 30.7393L20.3311 30.521L27.5 27.5Z" fill="#105DFF"/>
<path fill-rule="evenodd" clip-rule="evenodd" d="M27.5 27.5L20.3504 30.5646L20.2589 30.3442L27.5 27.5Z" fill="#0F5CFF"/>
<path fill-rule="evenodd" clip-rule="evenodd" d="M27.5001 27.5L20.2775 30.3882L20.1917 30.1655L27.5001 27.5Z" fill="#0E5BFF"/>
<path fill-rule="evenodd" clip-rule="evenodd" d="M27.5001 27.5L20.2088 30.2104L20.1283 29.9856L27.5001 27.5Z" fill="#0D5BFF"/>
<path fill-rule="evenodd" clip-rule="evenodd" d="M27.5 27.5L20.1441 30.0304L20.0697 29.8038L27.5 27.5Z" fill="#0C5AFF"/>
<path fill-rule="evenodd" clip-rule="evenodd" d="M27.5 27.5L20.0842 29.8492L20.0151 29.6208L27.5 27.5Z" fill="#0B59FF"/>
<path fill-rule="evenodd" clip-rule="evenodd" d="M27.5 27.5L20.0288 29.6666L19.9655 29.4364L27.5 27.5Z" fill="#0A59FF"/>
<path fill-rule="evenodd" clip-rule="evenodd" d="M27.5 27.5L19.9782 29.4826L19.9202 29.2508L27.5 27.5Z" fill="#0958FF"/>
<path fill-rule="evenodd" clip-rule="evenodd" d="M27.5 27.5L19.9316 29.2974L19.8796 29.0646L27.5 27.5Z" fill="#0857FF"/>
<path fill-rule="evenodd" clip-rule="evenodd" d="M27.5001 27.5L19.8898 29.1108L19.8436 28.8768L27.5001 27.5Z" fill="#0757FF"/>
<path fill-rule="evenodd" clip-rule="evenodd" d="M27.5 27.5L19.8528 28.9238L19.8119 28.6889L27.5 27.5Z" fill="#0656FF"/>
<path fill-rule="evenodd" clip-rule="evenodd" d="M27.5 27.5L19.8202 28.7355L19.785 28.4997L27.5 27.5Z" fill="#0555FF"/>
<path fill-rule="evenodd" clip-rule="evenodd" d="M27.5 27.5L19.7921 28.5468L19.7631 28.31L27.5 27.5Z" fill="#0455FF"/>
<path fill-rule="evenodd" clip-rule="evenodd" d="M27.5 27.5L19.7688 28.3571L19.7455 28.12L27.5 27.5Z" fill="#0354FF"/>
<path fill-rule="evenodd" clip-rule="evenodd" d="M27.5001 27.5L19.7499 28.1675L19.7323 27.9294L27.5001 27.5Z" fill="#0253FF"/>
<path fill-rule="evenodd" clip-rule="evenodd" d="M27.5 27.5L19.7358 27.977L19.7244 27.7385L27.5 27.5Z" fill="#0153FF"/>
<path fill-rule="evenodd" clip-rule="evenodd" d="M27.5 27.5L19.7265 27.7864L19.7208 27.5475L27.5 27.5Z" fill="#0052FF"/>
<path fill-rule="evenodd" clip-rule="evenodd" d="M27.5 27.4998L19.7217 27.5953V27.4043L27.5 27.4998Z" fill="white"/>
</g>
</g>
</g>
<defs>
<clipPath id="clip0_859_25718">
<rect width="33" height="33" fill="white"/>
</clipPath>
<clipPath id="clip1_859_25718">
<rect width="11" height="11" fill="white" transform="translate(22 22)"/>
</clipPath>
</defs>
</svg>
