<svg width="35" height="13" viewBox="0 0 35 13" fill="none" xmlns="http://www.w3.org/2000/svg">
<path d="M0.667276 12.0634C0.0426413 11.7609 0 11.3816 0 6.12618C0 0.803447 0.0379605 0.486921 0.712115 0.179812C1.24011 -0.0599375 33.0099 -0.0599375 33.5379 0.179812C34.2121 0.486921 34.25 0.803447 34.25 6.12618C34.25 11.4486 34.212 11.7652 33.5379 12.0723C33.0331 12.3035 1.14284 12.292 0.667276 12.0723V12.0634ZM31.8036 6.12618V2.4563H17.125H2.44642V6.12618V9.79579H17.125H31.8036V6.12618ZM3.66963 6.12618V3.67959H5.50446H7.33929V6.12618V8.57249H5.50446H3.66963V6.12618ZM8.5625 6.12618V3.67959H10.3973H12.2321V6.12618V8.57249H10.3973H8.5625V6.12618ZM13.4554 6.12618V3.67959H15.2902H17.125V6.12618V8.57249H15.2902H13.4554V6.12618ZM18.3482 6.12618V3.67959H20.183H22.0179V6.12618V8.57249H20.183H18.3482V6.12618Z" fill="white"/>
</svg>
