<svg width="20" height="20" viewBox="0 0 20 20" fill="none" xmlns="http://www.w3.org/2000/svg">
<rect x="2" y="2" width="16" height="16" rx="8" fill="#DFDFDF"/>
<path fill-rule="evenodd" clip-rule="evenodd" d="M9.99997 6.22614C9.3988 6.22614 8.91147 6.71349 8.91147 7.31467C8.91147 7.70207 8.59739 8.01613 8.21 8.01613C7.8226 8.01613 7.50854 7.70207 7.50854 7.31467C7.50854 5.93869 8.62397 4.82324 9.99997 4.82324C11.376 4.82324 12.4914 5.93869 12.4914 7.31467C12.4914 7.8096 12.3464 8.2728 12.0962 8.6615C11.9406 8.9035 11.7586 9.13425 11.5918 9.34167C11.5612 9.37967 11.5311 9.41692 11.5016 9.45342C11.3632 9.62475 11.2367 9.78133 11.1197 9.942C10.8311 10.3388 10.7015 10.6313 10.7015 10.8946V11.3421C10.7015 11.7295 10.3874 12.0436 9.99997 12.0436C9.61255 12.0436 9.29855 11.7295 9.29855 11.3421V10.8946C9.29855 10.1693 9.65464 9.57117 9.98539 9.11667C10.1252 8.92442 10.2786 8.73475 10.4174 8.563C10.4452 8.52858 10.4724 8.495 10.4988 8.46217C10.6646 8.2562 10.8047 8.07607 10.9165 7.90239C11.0253 7.73326 11.0885 7.53242 11.0885 7.31467C11.0885 6.71349 10.6011 6.22614 9.99997 6.22614ZM9.99997 13.4432C10.3874 13.4432 10.7015 13.7573 10.7015 14.1447V14.4746C10.7015 14.862 10.3874 15.176 9.99997 15.176C9.61255 15.176 9.29855 14.862 9.29855 14.4746V14.1447C9.29855 13.7573 9.61255 13.4432 9.99997 13.4432Z" fill="#0D0D0D"/>
</svg>
