<svg width="29" height="29" viewBox="0 0 29 29" fill="none" xmlns="http://www.w3.org/2000/svg">
<path d="M15.2835 20.6485C15.6371 21.0727 16.2676 21.1301 16.6919 20.7765C17.1162 20.4229 17.1735 19.7924 16.8199 19.3681L15.2835 20.6485ZM11.2179 14.2077L10.4497 13.5676C10.1407 13.9384 10.1407 14.4771 10.4497 14.8479L11.2179 14.2077ZM16.8199 9.0474C17.1735 8.62313 17.1162 7.99256 16.6919 7.639C16.2676 7.28543 15.6371 7.34276 15.2835 7.76703L16.8199 9.0474ZM16.0517 20.0083L16.8199 19.3681L11.9862 13.5676L11.2179 14.2077L10.4497 14.8479L15.2835 20.6485L16.0517 20.0083ZM11.2179 14.2077L11.9862 14.8479L16.8199 9.0474L16.0517 8.40722L15.2835 7.76703L10.4497 13.5676L11.2179 14.2077ZM14.5 1.375V2.375C21.1965 2.375 26.625 7.80355 26.625 14.5H27.625H28.625C28.625 6.69898 22.301 0.375 14.5 0.375V1.375ZM27.625 14.5H26.625C26.625 21.1965 21.1965 26.625 14.5 26.625V27.625V28.625C22.301 28.625 28.625 22.301 28.625 14.5H27.625ZM14.5 27.625V26.625C7.80355 26.625 2.375 21.1965 2.375 14.5H1.375H0.375C0.375 22.301 6.69898 28.625 14.5 28.625V27.625ZM1.375 14.5H2.375C2.375 7.80355 7.80355 2.375 14.5 2.375V1.375V0.375C6.69898 0.375 0.375 6.69898 0.375 14.5H1.375Z" fill="white"/>
</svg>
